<svg version="1.1" xmlns="http://www.w3.org/2000/svg" viewBox="0 0 1270.1843658095981 627.7121023568736" width="1270.1843658095981" height="627.7121023568736">
  <!-- svg-source:excalidraw -->
  
  <defs>
    <style>
      @font-face {
        font-family: "Virgil";
        src: url("https://excalidraw.com/Virgil.woff2");
      }
      @font-face {
        font-family: "Cascadia";
        src: url("https://excalidraw.com/Cascadia.woff2");
      }
    </style>
  </defs>
  <rect x="0" y="0" width="1270.1843658095981" height="627.7121023568736" fill="#ffffff"></rect><g stroke-linecap="round"><g transform="translate(481.6763639148552 188.97390135869483) rotate(269.76050842323644 -35.34263205590025 57.89580651521715)"><path d="M0 0 C-23.4 38.33, -46.79 76.66, -70.69 115.79 M0 0 C-20.9 34.23, -41.8 68.47, -70.69 115.79" stroke="#000000" stroke-width="1" fill="none"></path></g><g transform="translate(481.6763639148552 188.97390135869483) rotate(269.76050842323644 -35.34263205590025 57.89580651521715)"><path d="M-64.75 86.38 C-66.72 96.12, -68.68 105.85, -70.69 115.79 M-64.75 86.38 C-66.51 95.08, -68.26 103.77, -70.69 115.79" stroke="#000000" stroke-width="1" fill="none"></path></g><g transform="translate(481.6763639148552 188.97390135869483) rotate(269.76050842323644 -35.34263205590025 57.89580651521715)"><path d="M-47.24 97.08 C-55 103.27, -62.76 109.47, -70.69 115.79 M-47.24 97.08 C-54.17 102.61, -61.1 108.14, -70.69 115.79" stroke="#000000" stroke-width="1" fill="none"></path></g></g><g stroke-linecap="round" transform="translate(44.640002938899556 225.9700324711212) rotate(361.5089813421076 28.27215576171875 21.9248046875)"><path d="M15.93 1.31 C21 -1.01, 30.34 -1.5, 36.34 -0.19 C42.33 1.11, 48.6 5.09, 51.91 9.13 C55.23 13.17, 56.76 19.25, 56.22 24.03 C55.69 28.82, 53.08 34.43, 48.69 37.84 C44.31 41.25, 36.03 44.09, 29.92 44.49 C23.81 44.88, 16.85 42.99, 12.06 40.23 C7.27 37.47, 2.63 32.48, 1.18 27.93 C-0.26 23.39, -0.02 17.63, 3.38 12.97 C6.79 8.31, 17.84 1.95, 21.6 -0.02 C25.36 -1.99, 25.81 0.57, 25.94 1.16 M37.04 0.12 C42.83 1.58, 49.81 7.51, 52.83 11.79 C55.85 16.07, 56.01 21.55, 55.16 25.79 C54.31 30.03, 52.21 34.18, 47.71 37.23 C43.2 40.28, 34.2 43.9, 28.13 44.08 C22.07 44.26, 16.07 41.43, 11.32 38.31 C6.58 35.2, 0.84 29.85, -0.34 25.39 C-1.51 20.93, 1.39 15.57, 4.25 11.56 C7.11 7.54, 11.6 3.16, 16.85 1.31 C22.1 -0.54, 32.44 0.28, 35.76 0.44 C39.07 0.59, 36.8 1.63, 36.73 2.26" stroke="#000000" stroke-width="1" fill="none"></path></g><g stroke-linecap="round"><g transform="translate(70.8202048215224 271.64495906187665) rotate(361.5089813421076 1.5257673859922107 65.53093351799528)"><path d="M0.11 -1.05 C0.82 20.55, 3.85 108.76, 4.34 130.52 M-1.29 1.01 C-0.67 22.75, 3.29 110.56, 3.85 132.11" stroke="#000000" stroke-width="1" fill="none"></path></g></g><g stroke-linecap="round"><g transform="translate(11.071364891314317 297.6057910169353) rotate(361.5089813421076 62.88710336729883 -0.7677814610302676)"><path d="M-1.05 0.87 C19.94 0.45, 105.68 -2.09, 126.82 -2.4 M0.6 0.28 C21.36 0.01, 104.67 -0.56, 125.94 -1.09" stroke="#000000" stroke-width="1" fill="none"></path></g></g><g stroke-linecap="round"><g transform="translate(19.049152142038253 448.8798869510392) rotate(361.5089813421076 25.27997358746355 -24.1818584989756)"><path d="M0.87 0.11 C9.3 -7.79, 42.16 -40.34, 50.7 -48.47 M-0.14 -0.88 C8.09 -8.56, 40.87 -39.57, 49.53 -47.42" stroke="#000000" stroke-width="1" fill="none"></path></g></g><g stroke-linecap="round"><g transform="translate(73.31118528038482 402.05465708862346) rotate(361.5089813421076 23.37439642447046 21.564686103598234)"><path d="M0.11 -0.43 C7.92 6.9, 38.22 37.34, 45.81 44.83 M-1.29 -1.7 C6.98 5.23, 39.84 35.84, 48.04 43.2" stroke="#000000" stroke-width="1" fill="none"></path></g></g><g stroke-linecap="round"><g transform="translate(193.72748934352336 193.7974186148438) rotate(269.76050842323644 34.0626651252706 57.16400547196276)"><path d="M0 0 C24.27 40.73, 48.53 81.45, 68.13 114.33 M0 0 C15.38 25.81, 30.76 51.62, 68.13 114.33" stroke="#000000" stroke-width="1" fill="none"></path></g></g><g stroke-linecap="round"><g transform="translate(148.30672671185397 510.5719843764207) rotate(269.76050842323644 60.703720710748684 -69.29246447631903)"><path d="M0 0 C25.29 -28.87, 50.58 -57.74, 121.41 -138.58 M0 0 C25.04 -28.58, 50.08 -57.17, 121.41 -138.58" stroke="#000000" stroke-width="1" fill="none"></path></g><g transform="translate(148.30672671185397 510.5719843764207) rotate(269.76050842323644 60.703720710748684 -69.29246447631903)"><path d="M110.55 -110.62 C112.81 -116.45, 115.07 -122.27, 121.41 -138.58 M110.55 -110.62 C112.79 -116.39, 115.03 -122.15, 121.41 -138.58" stroke="#000000" stroke-width="1" fill="none"></path></g><g transform="translate(148.30672671185397 510.5719843764207) rotate(269.76050842323644 60.703720710748684 -69.29246447631903)"><path d="M95.11 -124.14 C100.59 -127.15, 106.07 -130.16, 121.41 -138.58 M95.11 -124.14 C100.54 -127.12, 105.96 -130.1, 121.41 -138.58" stroke="#000000" stroke-width="1" fill="none"></path></g></g><g stroke-linecap="round"><g transform="translate(415.95368251134045 427.1469278335154) rotate(269.76050842323644 32.11906654902978 44.14405561411746)"><path d="M0 0 C20.02 27.52, 40.05 55.04, 64.24 88.29 M0 0 C15.39 21.16, 30.79 42.31, 64.24 88.29" stroke="#000000" stroke-width="1" fill="none"></path></g></g><g stroke-linecap="round"><g transform="translate(25.426874713097703 355.4188246383942) rotate(269.76050842323644 208.30598494177727 -1.4031413377229853)"><path d="M0 0 C91.92 -0.62, 183.84 -1.24, 416.61 -2.81" stroke="#000000" stroke-width="1.5" fill="none" stroke-dasharray="1.5 7"></path></g></g><g stroke-linecap="round" transform="translate(445.72086885416115 208.83727169522018) rotate(269.76050842323644 149.51904296875006 141.53222566305652)"><path d="M150 0 C192.32 40.32, 234.64 80.64, 299.04 142 M150 0 C197.2 44.97, 244.39 89.93, 299.04 142 M299.04 142 C241 196.93, 182.96 251.87, 150 283.06 M299.04 142 C246.8 191.45, 194.56 240.89, 150 283.06 M150 283.06 C115.09 250.24, 80.18 217.41, 0 142 M150 283.06 C112.55 247.85, 75.1 212.63, 0 142 M0 142 C54.01 90.87, 108.03 39.73, 150 0 M0 142 C59.23 85.92, 118.47 29.85, 150 0" stroke="#000000" stroke-width="1" fill="none"></path></g><g stroke-linecap="round"><g transform="translate(769.4678406686933 196.79533563256058) rotate(65.7348388415888 0.4742819612980611 61.514551159492434)"><path d="M0 0 C0.25 32.24, 0.5 64.48, 0.95 123.03 M0 0 C0.27 34.4, 0.53 68.8, 0.95 123.03" stroke="#000000" stroke-width="1" fill="none"></path></g><g transform="translate(769.4678406686933 196.79533563256058) rotate(65.7348388415888 0.4742819612980611 61.514551159492434)"><path d="M-9.53 94.92 C-6.78 102.29, -4.04 109.65, 0.95 123.03 M-9.53 94.92 C-6.6 102.78, -3.67 110.64, 0.95 123.03" stroke="#000000" stroke-width="1" fill="none"></path></g><g transform="translate(769.4678406686933 196.79533563256058) rotate(65.7348388415888 0.4742819612980611 61.514551159492434)"><path d="M10.99 94.76 C8.36 102.17, 5.73 109.58, 0.95 123.03 M10.99 94.76 C8.18 102.66, 5.38 110.57, 0.95 123.03" stroke="#000000" stroke-width="1" fill="none"></path></g></g><g transform="translate(508.50158249870947 10.325192087693438) rotate(360.1962076793381 95 22.5)"><text x="95" y="32" font-family="Virgil, Segoe UI Emoji" font-size="36px" fill="#000000" text-anchor="middle" style="white-space: pre;" direction="ltr">A Program:</text></g><g transform="translate(33.70049201517611 461.7327209835536) rotate(360.1962076793381 42 12.5)"><text x="42" y="18" font-family="Virgil, Segoe UI Emoji" font-size="20px" fill="#000000" text-anchor="middle" style="white-space: pre;" direction="ltr">the user</text></g><g transform="translate(314.05285182334575 155.36513079196806) rotate(360.1962076793381 26 37.49999999999999)"><text x="26" y="18" font-family="Virgil, Segoe UI Emoji" font-size="20px" fill="#000000" text-anchor="middle" style="white-space: pre;" direction="ltr">initial</text><text x="26" y="43" font-family="Virgil, Segoe UI Emoji" font-size="20px" fill="#000000" text-anchor="middle" style="white-space: pre;" direction="ltr">user </text><text x="26" y="68" font-family="Virgil, Segoe UI Emoji" font-size="20px" fill="#000000" text-anchor="middle" style="white-space: pre;" direction="ltr">data</text></g><g transform="translate(301.01702539694526 474.4615926984976) rotate(360.1962076793381 37 37.5)"><text x="37" y="18" font-family="Virgil, Segoe UI Emoji" font-size="20px" fill="#000000" text-anchor="middle" style="white-space: pre;" direction="ltr">final</text><text x="37" y="43" font-family="Virgil, Segoe UI Emoji" font-size="20px" fill="#000000" text-anchor="middle" style="white-space: pre;" direction="ltr">program</text><text x="37" y="68" font-family="Virgil, Segoe UI Emoji" font-size="20px" fill="#000000" text-anchor="middle" style="white-space: pre;" direction="ltr">data</text></g><g stroke-linecap="round" transform="translate(884.4231074321295 163.20803592523026) rotate(360.1962076793381 35.339290345615666 53.625409397054604)"><path d="M0.63 0.62 L72.62 -1.84 L72.46 107.89 L1.19 109.16" stroke="none" stroke-width="0" fill="#fff"></path><path d="M0.08 1.92 C27.24 0.48, 53.17 -1.58, 70.91 0.27 M0.67 -0.57 C13.87 0.24, 28.8 -1.32, 69.71 -0.36 M70.06 0.78 C68.38 31.38, 71.21 66.7, 72.36 107.02 M70.57 0.36 C70.79 39.44, 71.14 78.45, 70.62 107.79 M71.71 105.97 C51.96 106.49, 31.81 107.59, -0.76 105.46 M70.72 107.61 C46.13 108.11, 21.73 107.66, -0.16 106.3 M1.8 108.85 C1.57 83.11, -1.07 56.76, -0.9 -0.47 M-0.92 107.66 C0.35 73.43, 1.26 37.68, -0.37 0.21" stroke="#000000" stroke-width="2" fill="none"></path></g><g stroke-linecap="round" transform="translate(876.8997586890517 156.16214189409234) rotate(360.1962076793381 35.339290345615666 53.6254093970546)"><path d="M0.62 1.94 L68.84 1.78 L71.32 108.44 L1.9 108.94" stroke="none" stroke-width="0" fill="#fff"></path><path d="M1.92 -0.05 C17.09 -1.44, 31.63 0.2, 70.95 -1.97 M-0.57 -0.36 C16.34 -0.14, 30.55 -1.44, 70.32 0.09 M71.46 -1.84 C69.95 28.57, 72.08 56.82, 70.45 108.49 M71.04 0.29 C71.74 31.01, 71.93 60.67, 71.21 106.88 M69.4 107.15 C43.3 105.99, 17.53 106.86, -1.79 108.09 M71.04 106.85 C51.09 106.64, 30.18 107.12, -0.95 106.6 M1.6 109.16 C2.12 70.92, 0.98 35.14, -0.47 0.46 M0.41 107.16 C0.18 80.31, -0.95 51.38, 0.21 0.32" stroke="#000000" stroke-width="2" fill="none"></path></g><g stroke-linecap="round" transform="translate(867.5329896906388 147.87611090207187) rotate(360.1962076793381 35.339290345615666 53.62540939705461)"><path d="M1.94 -1.84 L72.46 0.64 L71.87 109.16 L1.69 108.28" stroke="none" stroke-width="0" fill="#fff"></path><path d="M-0.05 0.48 C19.79 -2.26, 42.63 -0.41, 68.71 -1.54 M-0.36 0.58 C24.99 -0.57, 48.35 0.05, 70.77 -0.43 M68.84 -1.8 C71.34 43.23, 72.03 85.56, 71.92 106.91 M70.97 0.62 C71.2 37.44, 70.5 73.79, 70.31 108.05 M70.57 106.75 C50.4 107.39, 32.63 105.01, 0.83 107.04 M70.28 108.13 C49.08 107.95, 28.6 106.56, -0.65 107.57 M1.91 108.32 C-1.69 85.55, -1.86 63.53, 0.46 -0.82 M-0.09 108.06 C1.81 68.45, 0.62 30.5, 0.32 0.31" stroke="#000000" stroke-width="2" fill="none"></path></g><g stroke-linecap="round"><g transform="translate(879.5406468574212 196.62082286673254) rotate(360.1962076793381 22.604884669966395 -1.3202278265854304)"><path d="M-0.03 0.29 C6.56 -0.03, 31.78 -0.26, 39.58 -0.79 C47.37 -1.33, 45.75 -2.39, 46.72 -2.93 M-1.51 -0.6 C5.46 -0.3, 33.92 0.4, 41.84 0.25 C49.76 0.09, 45.49 -0.92, 46.02 -1.53" stroke="#000000" stroke-width="1" fill="none"></path></g></g><g stroke-linecap="round"><g transform="translate(881.5014398741392 165.16121898988555) rotate(360.1962076793381 22.35651051396303 -0.6773469836334698)"><path d="M0.29 -0.85 C2.75 -1.29, 8.31 -2.56, 15.88 -2.67 C23.46 -2.78, 40.94 -2, 45.73 -1.51 M-1.02 1.32 C1.71 1.1, 10.42 -0.7, 18.1 -1.06 C25.77 -1.41, 40.66 -0.66, 45.05 -0.82" stroke="#000000" stroke-width="1" fill="none"></path></g></g><g stroke-linecap="round"><g transform="translate(881.1931137921222 232.5616384440041) rotate(360.1962076793381 24.314261902250735 -0.4069477502485199)"><path d="M-0.85 -0.95 C3.58 -1.01, 20.33 -0.48, 26.55 -0.09 C32.76 0.3, 32.71 1.57, 36.44 1.39 C40.17 1.21, 47.05 -0.53, 48.92 -1.16 M0.91 1.17 C5.19 1.3, 19.37 1.35, 25.67 1.53 C31.97 1.7, 34.74 3.03, 38.71 2.22 C42.68 1.42, 47.68 -2.55, 49.48 -3.29" stroke="#000000" stroke-width="1" fill="none"></path></g></g><g stroke-linecap="round"><g transform="translate(877.9720199659464 243.80470617533072) rotate(360.1962076793381 27.4932734691929 -0.8318538204637349)"><path d="M-0.95 0.14 C0.72 -0.11, 7.63 -2.28, 10.33 -2.35 C13.02 -2.42, 9.08 -0.64, 15.21 -0.26 C21.33 0.12, 40.61 0.15, 47.07 -0.07 C53.53 -0.3, 52.68 -1.03, 53.97 -1.6 M0.75 -0.84 C2.26 -0.91, 6.65 -1.19, 9.46 -1.43 C12.27 -1.68, 11.24 -2.64, 17.62 -2.29 C23.99 -1.94, 41.35 0.43, 47.74 0.67 C54.13 0.91, 55.1 -0.49, 55.94 -0.84" stroke="#000000" stroke-width="1" fill="none"></path></g></g><g stroke-linecap="round"><g transform="translate(878.4698403933274 180.21419092521984) rotate(360.1962076793381 23.132243908873363 0.5590805770240976)"><path d="M0.14 0.16 C3.11 0.07, 9.11 -1.94, 17.01 -1.52 C24.91 -1.09, 42.64 2.2, 47.51 2.69 M-1.25 -0.8 C2.15 -0.69, 11.05 -0.73, 19.1 -0.46 C27.15 -0.2, 42.55 0.31, 47.06 0.77" stroke="#000000" stroke-width="1" fill="none"></path></g></g><g stroke-linecap="round"><g transform="translate(878.4589239578927 214.6960386592604) rotate(360.1962076793381 22.651394641535887 0.6525039863016886)"><path d="M0.16 -1.18 C1.51 -0.87, 4.03 2.03, 7.17 2.01 C10.31 2, 12.45 -1.37, 19 -1.28 C25.56 -1.18, 41.77 2.25, 46.5 2.58 M-1.21 0.81 C0.59 0.76, 6.08 0.39, 9.4 0.2 C12.71 0.01, 12.47 -0.35, 18.66 -0.32 C24.85 -0.29, 41.95 0.26, 46.52 0.39" stroke="#000000" stroke-width="1" fill="none"></path></g></g><g transform="translate(816.6497695198676 298.64522403349054) rotate(360.1962076793381 116 25)"><text x="116" y="18" font-family="Virgil, Segoe UI Emoji" font-size="20px" fill="#000000" text-anchor="middle" style="white-space: pre;" direction="ltr">Source Code</text><text x="116" y="43" font-family="Virgil, Segoe UI Emoji" font-size="20px" fill="#000000" text-anchor="middle" style="white-space: pre;" direction="ltr">( program instructions )</text></g><g transform="translate(506.94348556783586 309.0189108588809) rotate(360.1962076793381 94 75)"><text x="94" y="18" font-family="Virgil, Segoe UI Emoji" font-size="20px" fill="#000000" text-anchor="middle" style="white-space: pre;" direction="ltr">follows instructions</text><text x="94" y="43" font-family="Virgil, Segoe UI Emoji" font-size="20px" fill="#000000" text-anchor="middle" style="white-space: pre;" direction="ltr"> to processes </text><text x="94" y="68" font-family="Virgil, Segoe UI Emoji" font-size="20px" fill="#000000" text-anchor="middle" style="white-space: pre;" direction="ltr">user data.</text><text x="94" y="93" font-family="Virgil, Segoe UI Emoji" font-size="20px" fill="#000000" text-anchor="middle" style="white-space: pre;" direction="ltr"></text><text x="94" y="118" font-family="Virgil, Segoe UI Emoji" font-size="20px" fill="#000000" text-anchor="middle" style="white-space: pre;" direction="ltr">(tracing!)</text><text x="94" y="143" font-family="Virgil, Segoe UI Emoji" font-size="20px" fill="#000000" text-anchor="middle" style="white-space: pre;" direction="ltr"></text></g><g transform="translate(535.1137624013312 504.2578277328273) rotate(360.1962076793381 68 12.5)"><text x="68" y="18" font-family="Virgil, Segoe UI Emoji" font-size="20px" fill="#000000" text-anchor="middle" style="white-space: pre;" direction="ltr">The Computer</text></g><g transform="translate(135.67260360030707 584.1766727649285) rotate(360.1962076793381 75 12.500000000000028)"><text x="75" y="18" font-family="Virgil, Segoe UI Emoji" font-size="20px" fill="#000000" text-anchor="middle" style="white-space: pre;" direction="ltr">User Interface</text></g><g stroke-linecap="round"><g transform="translate(47.003574483451274 99.38955104469515) rotate(360.1962076793381 585.2070483093182 0.1630577522631098)"><path d="M0 0 C455.67 0.13, 911.34 0.25, 1170.41 0.33 M0 0 C446.74 0.12, 893.48 0.25, 1170.41 0.33" stroke="#000000" stroke-width="1" fill="none"></path></g></g><g stroke-linecap="round"><g transform="translate(981.2367615915012 500.7197435697856) rotate(360.1962076793381 70.95520484062877 -53.924436710717856)"><path d="M0 0 C49.84 -37.87, 99.67 -75.75, 141.91 -107.85 M0 0 C31.31 -23.79, 62.62 -47.59, 141.91 -107.85" stroke="#000000" stroke-width="1" fill="none"></path></g><g transform="translate(981.2367615915012 500.7197435697856) rotate(360.1962076793381 70.95520484062877 -53.924436710717856)"><path d="M125.67 -82.62 C131.38 -91.48, 137.08 -100.34, 141.91 -107.85 M125.67 -82.62 C129.26 -88.19, 132.84 -93.75, 141.91 -107.85" stroke="#000000" stroke-width="1" fill="none"></path></g><g transform="translate(981.2367615915012 500.7197435697856) rotate(360.1962076793381 70.95520484062877 -53.924436710717856)"><path d="M113.26 -98.96 C123.32 -102.08, 133.38 -105.2, 141.91 -107.85 M113.26 -98.96 C119.58 -100.92, 125.9 -102.88, 141.91 -107.85" stroke="#000000" stroke-width="1" fill="none"></path></g></g><g transform="translate(848.3324678909439 485.83143324849357) rotate(360.1962076793381 73.99999999999994 25)"><text x="74" y="18" font-family="Virgil, Segoe UI Emoji" font-size="20px" fill="#000000" text-anchor="middle" style="white-space: pre;" direction="ltr">logs and </text><text x="74" y="43" font-family="Virgil, Segoe UI Emoji" font-size="20px" fill="#000000" text-anchor="middle" style="white-space: pre;" direction="ltr">error messages</text></g><g stroke-linecap="round" transform="translate(1144.7324933020213 232.11125050518734) rotate(360.1962076793381 28.27215576171875 21.9248046875)"><path d="M16.43 2.6 C21.54 0.27, 30.27 -0.92, 36.14 0.05 C42 1.03, 48.39 4.62, 51.63 8.45 C54.86 12.27, 56.13 18.32, 55.55 23.01 C54.97 27.69, 52.34 33.2, 48.13 36.56 C43.93 39.92, 36.17 42.5, 30.3 43.19 C24.43 43.87, 17.81 43.14, 12.92 40.66 C8.03 38.17, 2.7 32.8, 0.97 28.29 C-0.76 23.78, -0.49 18.11, 2.53 13.58 C5.55 9.04, 15.89 3.15, 19.08 1.08 C22.26 -0.98, 21.56 0.99, 21.65 1.21 M25.67 0.03 C31.23 -0.9, 37.63 1.08, 42.78 3.77 C47.94 6.45, 54.84 11.52, 56.58 16.14 C58.32 20.77, 55.91 27.1, 53.21 31.5 C50.51 35.91, 45.51 40.52, 40.37 42.58 C35.24 44.64, 27.94 45.03, 22.4 43.85 C16.86 42.67, 10.72 39.31, 7.15 35.5 C3.58 31.69, 1.19 25.77, 0.99 20.98 C0.79 16.19, 2.19 10.38, 5.95 6.79 C9.71 3.2, 20.67 0.35, 23.55 -0.57 C26.42 -1.49, 23.14 0.59, 23.23 1.26" stroke="#000000" stroke-width="1" fill="none"></path></g><g stroke-linecap="round"><g transform="translate(1172.9602523428998 277.77405052562847) rotate(360.1962076793381 1.0388393616024132 64.95938626232557)"><path d="M-0.17 -1.05 C0.44 20.87, 3.16 108.95, 3.79 130.97 M-1.71 1.02 C-1.26 22.63, 2.24 107.8, 3.01 129.14" stroke="#000000" stroke-width="1" fill="none"></path></g></g><g stroke-linecap="round"><g transform="translate(1112.2848864939597 303.7109668021152) rotate(360.1962076793381 63.113475257977825 -0.7702464949339856)"><path d="M-1.05 0.31 C20.26 0.03, 105.87 -1.58, 127.27 -1.85 M0.6 -0.57 C21.84 -0.62, 105.56 0.21, 126.62 -0.25" stroke="#000000" stroke-width="1" fill="none"></path></g></g><g stroke-linecap="round"><g transform="translate(1123.1993283706238 455.6290361223313) rotate(360.1962076793381 25.13235427630127 -24.060098894508513)"><path d="M0.31 0.56 C8.88 -7.08, 42.67 -38.74, 51.25 -46.9 M-0.98 -0.19 C7.45 -8.09, 41.64 -40.79, 50.36 -48.68" stroke="#000000" stroke-width="1" fill="none"></path></g></g><g stroke-linecap="round"><g transform="translate(1177.4223872169637 407.605137645583) rotate(360.1962076793381 23.386501972340056 21.83778592798859)"><path d="M0.56 0.12 C8.63 7.49, 39.82 37.2, 47.38 44.54 M-0.6 -0.86 C7.46 6.13, 38.62 35.02, 46.77 42.76" stroke="#000000" stroke-width="1" fill="none"></path></g></g><g transform="translate(1145.0990913771475 480.4172966299143) rotate(360.1962076793381 57.5 25)"><text x="57.5" y="18" font-family="Virgil, Segoe UI Emoji" font-size="20px" fill="#000000" text-anchor="middle" style="white-space: pre;" direction="ltr">developer(s)</text><text x="57.5" y="43" font-family="Virgil, Segoe UI Emoji" font-size="20px" fill="#000000" text-anchor="middle" style="white-space: pre;" direction="ltr"></text></g><g stroke-linecap="round"><g transform="translate(980.4627887582759 214.98824919061335) rotate(360.1962076793381 57.052029417199606 35.44716081056089)"><path d="M0 0 C27.87 17.32, 55.75 34.64, 114.1 70.89 M0 0 C29.95 18.61, 59.9 37.21, 114.1 70.89" stroke="#000000" stroke-width="1" fill="none"></path></g></g><g stroke-linecap="round"><g transform="translate(708.9078349127569 415.9729091175999) rotate(360.1962076793381 68.31473214285722 39.69308035714289)"><path d="M0 0 C41.87 24.33, 83.74 48.66, 136.63 79.39 M0 0 C33.85 19.67, 67.69 39.33, 136.63 79.39" stroke="#000000" stroke-width="1" fill="none"></path></g></g><g stroke-linecap="round"><g transform="translate(779.9281298216658 147.36111343584014) rotate(359.37764627565696 0.35156250000005684 203.77511160714283)"><path d="M0 0 C0.15 89.75, 0.31 179.5, 0.7 407.55" stroke="#000000" stroke-width="1.5" fill="none" stroke-dasharray="1.5 7"></path></g></g><g transform="translate(682.8573219199046 567.4297307195224) rotate(360.1962076793381 82.5 24.99999999999997)"><text x="82.5" y="18" font-family="Virgil, Segoe UI Emoji" font-size="20px" fill="#000000" text-anchor="middle" style="white-space: pre;" direction="ltr">Interpreter and </text><text x="82.5" y="43" font-family="Virgil, Segoe UI Emoji" font-size="20px" fill="#000000" text-anchor="middle" style="white-space: pre;" direction="ltr">Developer Tools</text></g></svg>