<svg version="1.1" xmlns="http://www.w3.org/2000/svg" viewBox="0 0 2140.5896792643234 2223.9503217424663" width="4281.179358528647" height="4447.9006434849325">
  <!-- svg-source:excalidraw -->
  
  <defs>
    <style>
      @font-face {
        font-family: "Virgil";
        src: url("https://excalidraw.com/Virgil.woff2");
      }
      @font-face {
        font-family: "Cascadia";
        src: url("https://excalidraw.com/Cascadia.woff2");
      }
    </style>
  </defs>
  <g transform="translate(223.58048502604186 1045.3855721609934) rotate(0 73.5 113)"><text x="0" y="25.285714285714285" font-family="Helvetica, Segoe UI Emoji" font-size="28px" fill="#000000" text-anchor="start" style="white-space: pre;" direction="ltr">- empathize</text><text x="0" y="57.57142857142857" font-family="Helvetica, Segoe UI Emoji" font-size="28px" fill="#000000" text-anchor="start" style="white-space: pre;" direction="ltr">- define</text><text x="0" y="89.85714285714286" font-family="Helvetica, Segoe UI Emoji" font-size="28px" fill="#000000" text-anchor="start" style="white-space: pre;" direction="ltr">- ideate</text><text x="0" y="122.14285714285714" font-family="Helvetica, Segoe UI Emoji" font-size="28px" fill="#000000" text-anchor="start" style="white-space: pre;" direction="ltr">- prototype</text><text x="0" y="154.42857142857142" font-family="Helvetica, Segoe UI Emoji" font-size="28px" fill="#000000" text-anchor="start" style="white-space: pre;" direction="ltr">- test</text><text x="0" y="186.71428571428572" font-family="Helvetica, Segoe UI Emoji" font-size="28px" fill="#000000" text-anchor="start" style="white-space: pre;" direction="ltr">- ... repeat!</text><text x="0" y="219" font-family="Helvetica, Segoe UI Emoji" font-size="28px" fill="#000000" text-anchor="start" style="white-space: pre;" direction="ltr"></text></g><g stroke-linecap="round" transform="translate(758.4192609689553 1673.3514936127108) rotate(360.1962076793381 21.869303566444614 16.95944990495468)"><path d="M21.55 0.8 C26.08 0.59, 32.77 2.27, 36.42 4.58 C40.07 6.88, 42.77 10.93, 43.44 14.63 C44.11 18.33, 42.83 23.6, 40.45 26.78 C38.06 29.95, 33.56 32.66, 29.12 33.69 C24.68 34.72, 18.27 34.53, 13.82 32.93 C9.37 31.33, 4.64 27.2, 2.41 24.1 C0.19 21, -0.5 17.65, 0.47 14.33 C1.45 11, 3.87 6.35, 8.25 4.15 C12.63 1.95, 22.62 1.41, 26.77 1.14 C30.92 0.86, 33.13 2.21, 33.13 2.48 M29.63 2.3 C33.91 3.54, 39.11 5.64, 41.25 8.97 C43.4 12.29, 43.79 18.62, 42.5 22.23 C41.21 25.83, 37.5 28.57, 33.52 30.61 C29.55 32.65, 23.09 34.69, 18.64 34.47 C14.19 34.24, 10.12 32.12, 6.84 29.27 C3.56 26.42, -0.75 21.23, -1.06 17.39 C-1.37 13.54, 2.28 8.77, 4.98 6.19 C7.68 3.62, 10.98 2.9, 15.15 1.93 C19.31 0.97, 27.4 0.59, 29.97 0.41 C32.53 0.22, 30.32 0.51, 30.53 0.81" stroke="#000000" stroke-width="1" fill="none"></path></g><g stroke-linecap="round"><g transform="translate(780.3550238077114 1708.8861223081067) rotate(360.1962076793381 0.899236407809326 50.49804893910766)"><path d="M0.66 0.07 C1.14 16.96, 2.09 84.98, 2.24 101.94 M-0.45 -0.94 C-0.12 15.58, 0.34 83.55, 1.06 100.37" stroke="#000000" stroke-width="1" fill="none"></path></g></g><g stroke-linecap="round"><g transform="translate(733.6269584283248 1728.9912618220392) rotate(360.1962076793381 48.8634177347065 -1.5509963383322543)"><path d="M0.07 -0.45 C16.48 -1, 82.6 -2.48, 99.08 -2.66 M-1.35 -1.73 C14.94 -2.23, 82.02 -1.97, 98.69 -1.71" stroke="#000000" stroke-width="1" fill="none"></path></g></g><g stroke-linecap="round"><g transform="translate(741.8638541736855 1846.398717577262) rotate(360.1962076793381 20.046033131798197 -18.19343495112173)"><path d="M-0.45 1.07 C5.85 -4.92, 31.75 -29.58, 38.42 -35.83 M1.52 0.58 C8.11 -5.73, 34.32 -30.92, 40.54 -37.45" stroke="#000000" stroke-width="1" fill="none"></path></g></g><g stroke-linecap="round"><g transform="translate(783.6683532752422 1809.356310038006) rotate(360.1962076793381 18.631022836739533 17.194104994911413)"><path d="M1.07 -1.13 C7.24 4.61, 31.19 28.13, 37.1 33.97 M0.17 0.89 C6.26 6.88, 30.69 29.81, 36.65 35.52" stroke="#000000" stroke-width="1" fill="none"></path></g></g><g transform="translate(762.4013885013644 1620.2122381301149) rotate(0 23.5 16)"><text x="0" y="25" font-family="Helvetica, Segoe UI Emoji" font-size="28px" fill="#000000" text-anchor="start" style="white-space: pre;" direction="ltr">you</text></g><g stroke-linecap="round" transform="translate(379.01995838624373 1683.001370009523) rotate(360.1962076793381 21.869303566444614 16.95944990495468)"><path d="M29.49 1.5 C33.58 2.58, 38.92 6.1, 41.25 9.2 C43.58 12.29, 44.45 16.6, 43.48 20.05 C42.51 23.5, 39.12 27.48, 35.45 29.91 C31.77 32.33, 26.28 34.64, 21.43 34.61 C16.58 34.59, 9.91 32.36, 6.37 29.75 C2.83 27.13, 0.55 22.48, 0.19 18.92 C-0.16 15.35, 1.74 11.46, 4.23 8.34 C6.72 5.22, 9.79 0.9, 15.13 0.18 C20.47 -0.55, 32.17 2.86, 36.26 3.98 C40.35 5.11, 40.08 6.75, 39.67 6.91 M15.82 0.86 C20.07 -0.11, 26.18 1.07, 30.34 2.68 C34.49 4.29, 38.62 7.63, 40.73 10.51 C42.84 13.4, 44.17 16.45, 43.01 20 C41.85 23.55, 37.29 29.75, 33.76 31.82 C30.23 33.88, 26.14 33.01, 21.81 32.38 C17.49 31.76, 11.22 30.45, 7.81 28.09 C4.41 25.72, 2.27 21.54, 1.38 18.18 C0.49 14.81, 0.33 11.04, 2.48 7.9 C4.63 4.77, 11.94 0.72, 14.29 -0.63 C16.63 -1.98, 16.19 -0.66, 16.55 -0.18" stroke="#000000" stroke-width="1" fill="none"></path></g><g stroke-linecap="round"><g transform="translate(400.9557212249998 1718.5359987049192) rotate(360.1962076793381 1.692696804635574 50.80486413985375)"><path d="M0.85 0.95 C1.57 17.67, 3.4 84.52, 3.55 101.21 M-0.16 0.4 C0.54 16.67, 2.34 82.24, 3.05 99.26" stroke="#000000" stroke-width="1" fill="none"></path></g></g><g stroke-linecap="round"><g transform="translate(354.2276558456132 1738.6411382188514) rotate(360.1962076793381 49.17023293545259 -0.8174779047614038)"><path d="M0.95 0.86 C17.2 0.3, 82.14 -2.09, 98.35 -2.5 M-0.01 0.27 C16.03 -0.25, 81.31 -1.37, 97.58 -1.47" stroke="#000000" stroke-width="1" fill="none"></path></g></g><g stroke-linecap="round"><g transform="translate(362.4645515909739 1856.0485939740743) rotate(360.1962076793381 20.317897418789983 -19.11764840256683)"><path d="M0.86 0.34 C7.15 -5.92, 32.14 -30.38, 38.58 -36.57 M-0.15 -0.53 C6.43 -7.26, 34.31 -32.75, 40.78 -38.57" stroke="#000000" stroke-width="1" fill="none"></path></g></g><g stroke-linecap="round"><g transform="translate(404.26905069253087 1819.0061864348183) rotate(360.1962076793381 17.707711208338196 17.216590288359384)"><path d="M0.34 -0.97 C6.24 4.54, 30.39 28.02, 36.36 33.89 M-0.95 1.14 C4.73 6.77, 29.47 29.63, 35.53 35.4" stroke="#000000" stroke-width="1" fill="none"></path></g></g><g stroke-linecap="round" transform="translate(314.4192639417993 1668.2227241761898) rotate(360.1962076793381 21.869303566444614 16.95944990495468)"><path d="M20.75 0.32 C25.11 0.08, 31.13 2.2, 35.01 4.31 C38.89 6.41, 42.97 9.49, 44.03 12.96 C45.09 16.43, 43.77 21.7, 41.37 25.12 C38.96 28.55, 33.93 32.25, 29.6 33.53 C25.27 34.81, 19.89 33.97, 15.38 32.8 C10.88 31.62, 5.06 29.52, 2.59 26.5 C0.11 23.49, -0.21 18.5, 0.53 14.72 C1.27 10.93, 3.16 6.35, 7.02 3.81 C10.88 1.27, 20.58 0.02, 23.68 -0.5 C26.77 -1.03, 25.6 0.25, 25.59 0.64 M20.49 0 C24.51 -0.65, 29.06 -0.47, 32.98 1.78 C36.9 4.04, 42.79 9.7, 44.03 13.54 C45.27 17.38, 42.67 21.5, 40.41 24.81 C38.15 28.12, 34.52 32.16, 30.47 33.4 C26.42 34.64, 20.41 33.54, 16.1 32.24 C11.79 30.93, 7.53 28.18, 4.63 25.57 C1.74 22.96, -1.3 19.95, -1.27 16.58 C-1.23 13.2, 1.4 7.98, 4.85 5.33 C8.29 2.68, 16.74 1.59, 19.4 0.69 C22.05 -0.21, 20.56 -0.04, 20.79 -0.08" stroke="#000000" stroke-width="1" fill="none"></path></g><g stroke-linecap="round"><g transform="translate(336.3550267805554 1703.7573528715857) rotate(360.1962076793381 0.8001462554450995 50.0373041656415)"><path d="M0.22 -0.05 C0.62 16.97, 2.43 84.32, 2.72 101.2 M-1.12 -1.13 C-0.91 15.61, 0.86 82.55, 1.78 99.25" stroke="#000000" stroke-width="1" fill="none"></path></g></g><g stroke-linecap="round"><g transform="translate(289.6269614011687 1723.8624923855182) rotate(360.1962076793381 48.4026729612404 -1.1263574515825212)"><path d="M-0.05 0.03 C16.5 -0.39, 81.94 -1.91, 98.35 -2.28 M-1.54 -1 C14.97 -1.3, 81.01 -1.11, 97.57 -1.14" stroke="#000000" stroke-width="1" fill="none"></path></g></g><g stroke-linecap="round"><g transform="translate(297.8638571465294 1841.2699481407408) rotate(360.1962076793381 19.846856109887767 -19.001196792258725)"><path d="M0.03 0.33 C6.46 -5.73, 32.32 -30.34, 38.79 -36.41 M-1.42 -0.54 C5.38 -6.97, 34.58 -32.08, 41.11 -38.33" stroke="#000000" stroke-width="1" fill="none"></path></g></g><g stroke-linecap="round"><g transform="translate(339.66835624808624 1804.227540601485) rotate(360.1962076793381 17.781632977580927 16.872271472610237)"><path d="M0.33 -0.75 C6.43 4.79, 30.44 27.37, 36.52 33.3 M-0.96 1.47 C5.02 7.16, 29.54 29.26, 35.77 34.5" stroke="#000000" stroke-width="1" fill="none"></path></g></g><g stroke-linecap="round" transform="translate(438.5512083862435 1666.7643908428565) rotate(360.1962076793381 21.869303566444614 16.95944990495468)"><path d="M15.37 0.93 C19.5 -0.35, 26.48 -0.22, 30.98 1.33 C35.48 2.87, 40.42 7, 42.39 10.21 C44.36 13.43, 43.99 17.16, 42.81 20.63 C41.62 24.11, 39.01 28.92, 35.29 31.05 C31.56 33.19, 25.31 33.8, 20.45 33.45 C15.59 33.1, 9.61 31.51, 6.12 28.95 C2.63 26.4, -0.09 21.71, -0.47 18.11 C-0.85 14.52, 0.61 10.41, 3.85 7.38 C7.08 4.35, 15.84 1.2, 18.95 -0.06 C22.05 -1.32, 22.34 -0.47, 22.49 -0.16 M16.16 -0.59 C20.64 -2.29, 26.46 -1.44, 30.81 0.01 C35.16 1.47, 40.39 4.71, 42.27 8.14 C44.16 11.57, 43.48 17.14, 42.12 20.59 C40.77 24.04, 37.47 26.83, 34.14 28.85 C30.81 30.88, 26.55 32.59, 22.12 32.73 C17.69 32.87, 11.1 31.68, 7.55 29.7 C4.01 27.73, 1.67 24.29, 0.85 20.89 C0.03 17.5, 0.52 12.83, 2.63 9.31 C4.74 5.79, 11.24 1.05, 13.5 -0.22 C15.76 -1.49, 16.11 1.35, 16.2 1.71" stroke="#000000" stroke-width="1" fill="none"></path></g><g stroke-linecap="round"><g transform="translate(460.4869712249996 1702.2990195382527) rotate(360.1962076793381 1.2526786553192721 50.541191573248966)"><path d="M0.38 -0.65 C0.89 16.43, 3.13 84.75, 3.38 101.73 M-0.88 1.63 C-0.5 18.44, 1.93 83.81, 2.8 100.06" stroke="#000000" stroke-width="1" fill="none"></path></g></g><g stroke-linecap="round"><g transform="translate(413.75890584561296 1722.404159052185) rotate(360.1962076793381 49.113327760847966 -0.8241083969717806)"><path d="M-0.65 0.69 C15.96 0.24, 82.37 -1.97, 98.87 -2.34 M1.22 0.01 C17.8 -0.34, 82.27 -1.2, 98.37 -1.23" stroke="#000000" stroke-width="1" fill="none"></path></g></g><g stroke-linecap="round"><g transform="translate(421.99580159097366 1839.8116148074078) rotate(360.1962076793381 20.307785918169117 -18.736686530525674)"><path d="M0.69 0.86 C7.09 -5.1, 32.25 -30.09, 38.73 -36.41 M-0.4 0.26 C6.34 -6.02, 34.48 -32.31, 41.02 -38.33" stroke="#000000" stroke-width="1" fill="none"></path></g></g><g stroke-linecap="round"><g transform="translate(463.80030069253064 1802.7692072681518) rotate(360.1962076793381 18.184013379985743 17.347115590352246)"><path d="M0.86 -0.81 C7.05 4.73, 30.68 28.02, 36.52 33.96 M-0.15 1.37 C5.97 7.06, 29.92 30.24, 35.77 35.51" stroke="#000000" stroke-width="1" fill="none"></path></g></g><g transform="translate(309.3689100477431 1616.52154492575) rotate(0 94 16)"><text x="0" y="25" font-family="Helvetica, Segoe UI Emoji" font-size="28px" fill="#000000" text-anchor="start" style="white-space: pre;" direction="ltr">team members</text></g><g stroke-linecap="round" transform="translate(826.9440035251326 815.6339383688984) rotate(360.1962076793381 21.869303566444614 16.95944990495471)"><path d="M12.36 2.22 C16.16 0.53, 22.7 0.2, 27.26 1.12 C31.83 2.03, 36.87 4.78, 39.76 7.7 C42.65 10.63, 45.07 15.31, 44.61 18.65 C44.15 21.99, 40.25 25.23, 37 27.73 C33.76 30.24, 29.56 32.98, 25.13 33.69 C20.71 34.39, 14.59 34.03, 10.46 31.98 C6.33 29.93, 1.68 24.91, 0.35 21.41 C-0.99 17.91, 0.19 14.43, 2.45 10.98 C4.71 7.52, 11.72 2.17, 13.91 0.69 C16.1 -0.79, 15.55 1.76, 15.58 2.09 M15.86 -0.07 C20.43 -0.52, 28.37 1.75, 32.7 3.43 C37.03 5.12, 40.09 7.06, 41.84 10.05 C43.58 13.03, 44.8 17.65, 43.17 21.36 C41.54 25.08, 35.98 30.37, 32.04 32.34 C28.1 34.32, 23.94 33.8, 19.54 33.21 C15.14 32.62, 9.03 31.43, 5.63 28.79 C2.22 26.15, -0.77 21.03, -0.89 17.39 C-1.01 13.75, 2.1 9.84, 4.89 6.94 C7.69 4.05, 13.96 0.93, 15.89 0.01 C17.83 -0.9, 16.03 1.09, 16.5 1.45" stroke="#000000" stroke-width="1" fill="none"></path></g><g stroke-linecap="round"><g transform="translate(848.8797663638887 851.1685670642945) rotate(360.1962076793381 1.3979296543201372 50.0197512624727)"><path d="M-0.77 -1.13 C-0.22 15.63, 2.9 84.1, 3.57 101.17 M1.03 0.89 C1.47 17.21, 2.8 82.82, 3.08 99.21" stroke="#000000" stroke-width="1" fill="none"></path></g></g><g stroke-linecap="round"><g transform="translate(802.1517009845021 871.2737065782268) rotate(360.1962076793381 48.59188745007168 -0.9956842874113576)"><path d="M-1.13 0.88 C15.15 0.83, 81.72 -0.71, 98.32 -1.01 M0.47 0.29 C16.57 -0.05, 81.28 -2.32, 97.52 -2.87" stroke="#000000" stroke-width="1" fill="none"></path></g></g><g stroke-linecap="round"><g transform="translate(810.388596729863 988.6811623334496) rotate(360.1962076793381 19.967862430104503 -18.97395728690814)"><path d="M0.88 0.3 C7.68 -5.57, 33.52 -30.31, 40.06 -36.35 M-0.12 -0.59 C6.63 -6.73, 32.75 -32.03, 39.38 -38.25" stroke="#000000" stroke-width="1" fill="none"></path></g></g><g stroke-linecap="round"><g transform="translate(852.1930958314196 951.6387547941937) rotate(360.1962076793381 17.786346132910182 17.1316115107608)"><path d="M0.3 0.51 C6.58 6.12, 30.46 28.87, 36.58 34.52 M-1 -0.26 C5.26 4.92, 29.58 27.26, 35.86 32.71" stroke="#000000" stroke-width="1" fill="none"></path></g></g><g stroke-linecap="round" transform="translate(762.3433090806882 800.8552925355651) rotate(360.1962076793381 21.869303566444614 16.95944990495471)"><path d="M28.06 1.39 C32.47 1.79, 37.86 3.2, 40.34 6.09 C42.81 8.97, 43.37 14.84, 42.9 18.69 C42.44 22.54, 40.52 26.78, 37.54 29.2 C34.55 31.62, 29.73 32.78, 25.01 33.21 C20.28 33.64, 13.09 33.62, 9.18 31.76 C5.26 29.89, 2.82 25.6, 1.5 22.03 C0.19 18.45, -0.66 13.73, 1.29 10.3 C3.24 6.87, 8.22 2.98, 13.2 1.47 C18.18 -0.03, 27.68 1.04, 31.19 1.27 C34.7 1.5, 34.56 2.58, 34.27 2.85 M25.57 0.82 C29.62 1.08, 34.9 2.02, 38.09 4.89 C41.29 7.75, 44.8 14.12, 44.75 17.99 C44.69 21.86, 40.96 25.65, 37.78 28.12 C34.6 30.59, 30.26 32.21, 25.69 32.82 C21.12 33.42, 14.38 33.71, 10.36 31.74 C6.34 29.78, 3.11 24.66, 1.57 21.03 C0.03 17.4, -0.63 12.94, 1.12 9.95 C2.87 6.95, 7.89 4.74, 12.07 3.08 C16.26 1.41, 24.13 0.2, 26.24 -0.05 C28.36 -0.29, 24.62 1.36, 24.75 1.6" stroke="#000000" stroke-width="1" fill="none"></path></g><g stroke-linecap="round"><g transform="translate(784.2790719194443 836.389921230961) rotate(360.1962076793381 1.3591044094491735 50.6163560959685)"><path d="M0.44 0.58 C0.97 17.39, 2.95 84.5, 3.51 101.39 M-0.79 -0.16 C-0.37 16.25, 2.25 82.82, 3 99.55" stroke="#000000" stroke-width="1" fill="none"></path></g></g><g stroke-linecap="round"><g transform="translate(737.5510065400576 856.4950607448935) rotate(360.1962076793381 48.98172489156735 -0.5393512671005141)"><path d="M0.58 0.82 C16.92 0.69, 82.12 -0.15, 98.54 -0.38 M-0.57 0.21 C15.61 -0.27, 81.29 -1.47, 97.86 -1.9" stroke="#000000" stroke-width="1" fill="none"></path></g></g><g stroke-linecap="round"><g transform="translate(745.7879022854183 973.9025165001161) rotate(360.1962076793381 20.244085023870127 -18.372733861918412)"><path d="M0.82 0.52 C7.53 -5.53, 34.08 -29.32, 40.69 -35.71 M-0.21 -0.25 C6.41 -6.66, 33.6 -31.13, 40.35 -37.27" stroke="#000000" stroke-width="1" fill="none"></path></g></g><g stroke-linecap="round"><g transform="translate(787.5924013869751 936.8601089608604) rotate(360.1962076793381 18.277169797295983 17.81071507893847)"><path d="M0.52 1.15 C6.63 6.83, 31.46 29.61, 37.22 34.92 M-0.66 0.7 C5.33 5.99, 30.48 27.79, 36.84 33.31" stroke="#000000" stroke-width="1" fill="none"></path></g></g><g stroke-linecap="round" transform="translate(886.4752535251322 799.3969592022319) rotate(360.1962076793381 21.869303566444614 16.95944990495471)"><path d="M31.08 1.27 C35.51 2.69, 39.98 6.94, 41.89 10.11 C43.8 13.29, 43.58 16.81, 42.55 20.33 C41.51 23.84, 39.27 29.02, 35.68 31.18 C32.08 33.35, 25.75 33.46, 20.99 33.31 C16.22 33.17, 10.61 32.71, 7.09 30.29 C3.57 27.87, 0.54 22.66, -0.11 18.77 C-0.77 14.88, 0.7 10.13, 3.15 6.96 C5.6 3.79, 9.09 0.13, 14.6 -0.23 C20.11 -0.6, 31.73 3.27, 36.22 4.76 C40.72 6.24, 41.82 8.48, 41.57 8.68 M16.67 0.08 C21.12 -1.15, 26.89 0.42, 30.89 1.98 C34.9 3.54, 38.62 6.18, 40.69 9.45 C42.76 12.71, 44.57 18.09, 43.33 21.58 C42.08 25.07, 37.2 28.22, 33.2 30.39 C29.19 32.56, 23.58 34.81, 19.3 34.61 C15.03 34.42, 10.81 32.09, 7.55 29.21 C4.28 26.33, 0.2 20.76, -0.26 17.34 C-0.73 13.92, 2.16 11.33, 4.77 8.7 C7.37 6.06, 13.28 2.99, 15.36 1.54 C17.44 0.09, 17.14 0.03, 17.23 0.01" stroke="#000000" stroke-width="1" fill="none"></path></g><g stroke-linecap="round"><g transform="translate(908.4110163638883 834.931587897628) rotate(360.1962076793381 2.000056263658564 50.70331063866964)"><path d="M1.08 0.97 C1.27 17.44, 1.26 83.3, 1.65 99.93 M0.19 0.44 C0.69 17.53, 3.34 84.04, 3.81 100.97" stroke="#000000" stroke-width="1" fill="none"></path></g></g><g stroke-linecap="round"><g transform="translate(861.6829509845019 855.0367274115603) rotate(360.1962076793381 49.65594407684421 -0.7719189408125473)"><path d="M0.97 -1.04 C16.96 -1.36, 80.92 -0.84, 97.07 -0.82 M0.02 1.03 C16.28 0.88, 83.12 -1.9, 99.29 -2.57" stroke="#000000" stroke-width="1" fill="none"></path></g></g><g stroke-linecap="round"><g transform="translate(869.9198467298622 972.4441831667831) rotate(360.1962076793381 19.606631689208086 -17.871243315919152)"><path d="M-1.04 -0.94 C5.49 -7.26, 33.39 -31.1, 40.25 -36.92 M0.61 1.17 C6.95 -5.03, 33.17 -28.97, 39.68 -35.45" stroke="#000000" stroke-width="1" fill="none"></path></g></g><g stroke-linecap="round"><g transform="translate(911.7243458314196 935.4017756275272) rotate(360.1962076793381 17.534019713524117 17.286186845250143)"><path d="M-0.94 0.71 C4.9 6.64, 29.67 29.12, 36.01 34.54 M0.76 0.03 C6.35 5.7, 28.99 27.04, 35 32.73" stroke="#000000" stroke-width="1" fill="none"></path></g></g><g transform="translate(813.3855387369792 729.942685566251) rotate(0 168.5 20.5)"><text x="0" y="33" font-family="Helvetica, Segoe UI Emoji" font-size="36px" fill="#000000" text-anchor="start" style="white-space: pre;" direction="ltr">Users (real humans!)</text></g><g transform="translate(1254.2571750217014 1543.6181684221538) rotate(0 95.5 20.5)"><text x="0" y="33" font-family="Helvetica, Segoe UI Emoji" font-size="36px" fill="#000000" text-anchor="start" style="white-space: pre;" direction="ltr">A Computer</text></g><g stroke-linecap="round" transform="translate(932.5963572858333 1219.129220071106) rotate(0 35.339290345615666 53.6254093970546)"><path d="M1.59 -0.18 L69.74 1.54 L72.44 107.63 L-0.45 105.35" stroke="none" stroke-width="0" fill="#fff"></path><path d="M-1.09 0.19 C21.21 -0.87, 41.68 0.66, 71.39 1.39 M0.49 -0.36 C24.29 -0.32, 47.6 -0.52, 71.54 0.66 M69.62 -1.42 C70.61 28.36, 72.14 57.07, 68.86 105.57 M71.1 0.91 C71.75 38.12, 70.13 76.49, 70.27 106.88 M68.95 106.92 C50.61 104.86, 33.04 106.65, -0.2 105.85 M70.56 107.96 C49.62 107.83, 30.44 107.71, 0.29 107.14 M1.71 105.51 C1.28 69.99, -0.87 37.51, -1.98 -0.04 M-0.2 108.12 C-0.96 71.79, -0.17 38.3, 0.69 0.74" stroke="#000000" stroke-width="2" fill="none"></path></g><g stroke-linecap="round" transform="translate(925.0489242501191 1212.1091307853915) rotate(0 35.339290345615666 53.6254093970546)"><path d="M-0.18 -0.94 L72.22 1.76 L71.06 106.8 L-1.9 106.57" stroke="none" stroke-width="0" fill="#fff"></path><path d="M0.19 -0.12 C20.4 -0.59, 43.64 1.09, 72.07 0.59 M-0.36 0.98 C22.99 0.64, 45.94 0.52, 71.34 -0.31 M69.26 -0.87 C71.07 40.8, 70.97 78.44, 69 108.46 M71.59 0.91 C70.73 33.07, 70.43 67.15, 70.31 106.96 M70.35 106.34 C43.9 107.32, 20.59 106.44, -1.41 107.03 M71.38 106.6 C42.89 107.74, 14.86 107.46, -0.11 107.54 M-1.74 107.73 C-0.91 81.41, 1.91 56.93, -0.04 0.52 M0.87 107.08 C-0.38 67.75, 1.1 27.69, 0.74 0.8" stroke="#000000" stroke-width="2" fill="none"></path></g><g stroke-linecap="round" transform="translate(915.6538349644037 1203.8552245353917) rotate(0 35.339290345615666 53.6254093970546)"><path d="M-0.94 1.54 L72.44 0.38 L70.22 105.35 L-0.68 106.62" stroke="none" stroke-width="0" fill="#fff"></path><path d="M-0.12 -1.31 C15.89 0.16, 34.43 1.33, 71.27 0.55 M0.98 -0.15 C23.96 -0.09, 46.82 0.92, 70.36 0.74 M69.81 -0.44 C70.78 39.96, 68.29 79.32, 71.89 107.55 M71.59 -0.54 C70.43 37.21, 70.73 75.72, 70.39 107.8 M69.77 105.57 C57.2 107.23, 42.18 105.73, -0.22 109.15 M70.03 107.37 C45.42 107.75, 19.3 107.64, 0.29 106.5 M0.48 105.3 C-2.59 86.41, -2.89 63.8, 0.52 1.48 M-0.17 106.76 C0.84 77.17, 0.9 45.85, 0.8 -0.09" stroke="#000000" stroke-width="2" fill="none"></path></g><g stroke-linecap="round"><g transform="translate(927.6402615513147 1252.6024615827444) rotate(0 22.734076247207952 -0.9538917121919042)"><path d="M-0.07 -0.78 C6.68 -0.75, 31.99 0.54, 39.84 0.3 C47.69 0.05, 45.82 -1.75, 47.01 -2.26 M-1.57 1.42 C5.64 1.65, 34.24 2.83, 42.24 1.9 C50.25 0.97, 45.61 -3.6, 46.46 -4.16" stroke="#000000" stroke-width="1" fill="none"></path></g></g><g stroke-linecap="round"><g transform="translate(929.495513789329 1221.1371742839058) rotate(0 22.808664559170495 -1.3379912800332647)"><path d="M-0.78 -0.59 C2.02 -0.97, 9.11 -2.48, 16.97 -2.38 C24.83 -2.28, 41.58 -0.36, 46.4 0.03 M1 1.72 C3.66 0.97, 8.58 -3.64, 16.09 -4.28 C23.61 -4.92, 41.04 -3.04, 46.07 -2.13" stroke="#000000" stroke-width="1" fill="none"></path></g></g><g stroke-linecap="round"><g transform="translate(929.4189142729596 1288.531548554263) rotate(0 24.22867971872114 0.2503948146752464)"><path d="M-0.59 0.14 C3.9 0.36, 20.41 0.16, 26.84 0.58 C33.26 1, 34.34 2.97, 37.98 2.64 C41.61 2.32, 46.98 -0.81, 48.64 -1.38 M1.31 -0.84 C5.68 -0.87, 20.1 -1.93, 26.11 -1.1 C32.13 -0.28, 33.58 4.56, 37.4 4.13 C41.22 3.71, 46.96 -2.37, 49.04 -3.63" stroke="#000000" stroke-width="1" fill="none"></path></g></g><g stroke-linecap="round"><g transform="translate(926.2348670914292 1299.7746969625418) rotate(0 27.167375253128853 -0.6574517912791293)"><path d="M0.14 0.43 C2.1 0.39, 8.28 -0.65, 11 -0.81 C13.72 -0.97, 10.49 -0.71, 16.46 -0.54 C22.43 -0.38, 40.32 0.51, 46.84 0.18 C53.36 -0.14, 54.13 -1.99, 55.58 -2.47 M-1.25 -0.4 C0.7 -0.76, 7.64 -2.97, 10.49 -2.74 C13.34 -2.52, 9.71 0.3, 15.87 0.93 C22.02 1.57, 40.92 1.58, 47.4 1.06 C53.87 0.54, 53.64 -1.34, 54.73 -2.18" stroke="#000000" stroke-width="1" fill="none"></path></g></g><g stroke-linecap="round"><g transform="translate(926.519709986995 1236.197775837167) rotate(0 23.209553910495288 0.12704575440272947)"><path d="M0.43 0.83 C3.61 0.77, 10.75 -0.53, 18.55 -0.26 C26.35 0.01, 42.57 1.91, 47.23 2.47 M-0.81 0.23 C2.3 -0.23, 9.88 -2.25, 17.79 -2.21 C25.7 -2.18, 41.83 -0.13, 46.62 0.43" stroke="#000000" stroke-width="1" fill="none"></path></g></g><g stroke-linecap="round"><g transform="translate(926.6271981831454 1270.6811048730067) rotate(0 23.959699468334748 0.8492287062516652)"><path d="M0.83 0.36 C2.22 0.57, 5.43 1.96, 8.42 1.73 C11.41 1.5, 12.16 -1.02, 18.78 -1.02 C25.39 -1.02, 43.22 1.29, 48.11 1.71 M-0.19 -0.5 C1.05 -0.7, 4.56 -0.33, 7.65 -0.24 C10.73 -0.14, 12.04 -0.42, 18.32 0.07 C24.59 0.56, 40.49 2.46, 45.31 2.72" stroke="#000000" stroke-width="1" fill="none"></path></g></g><g transform="translate(854.9181508866566 1144.707659524584) rotate(0 105.5 20.5)"><text x="0" y="33" font-family="Helvetica, Segoe UI Emoji" font-size="36px" fill="#000000" text-anchor="start" style="white-space: pre;" direction="ltr">Source Code</text></g><g stroke-linecap="round" transform="translate(272.5675048828125 1513.3881472632995) rotate(0 290.37760416666674 202.07356770833326)"><path d="M101.04 0 M101.04 0 C201.83 0, 302.63 0, 479.72 0 M101.04 0 C219.2 0, 337.37 0, 479.72 0 M479.72 0 C547.08 0, 580.76 33.68, 580.76 101.04 M479.72 0 C547.08 0, 580.76 33.68, 580.76 101.04 M580.76 101.04 C580.76 145.12, 580.76 189.2, 580.76 303.11 M580.76 101.04 C580.76 162.66, 580.76 224.27, 580.76 303.11 M580.76 303.11 C580.76 370.47, 547.08 404.15, 479.72 404.15 M580.76 303.11 C580.76 370.47, 547.08 404.15, 479.72 404.15 M479.72 404.15 C374.89 404.15, 270.07 404.15, 101.04 404.15 M479.72 404.15 C369.37 404.15, 259.02 404.15, 101.04 404.15 M101.04 404.15 C33.68 404.15, 0 370.47, 0 303.11 M101.04 404.15 C33.68 404.15, 0 370.47, 0 303.11 M0 303.11 C0 232.35, 0 161.58, 0 101.04 M0 303.11 C0 224.83, 0 146.54, 0 101.04 M0 101.04 C0 33.68, 33.68 0, 101.04 0 M0 101.04 C0 33.68, 33.68 0, 101.04 0" stroke="#000000" stroke-width="1" fill="none"></path></g><g stroke-linecap="round" transform="translate(10 378.2133425757995) rotate(0 945.8984781901041 917.8684895833334)"><path d="M1891.8 917.87 C1891.8 927.67, 1891.63 937.49, 1891.31 947.29 C1890.99 957.09, 1890.5 966.89, 1889.85 976.68 C1889.21 986.46, 1888.4 996.24, 1887.43 1006 C1886.46 1015.77, 1885.32 1025.52, 1884.03 1035.24 C1882.74 1044.97, 1881.29 1054.68, 1879.67 1064.36 C1878.06 1074.04, 1876.29 1083.7, 1874.35 1093.33 C1872.42 1102.95, 1870.33 1112.55, 1868.08 1122.11 C1865.83 1131.67, 1863.42 1141.2, 1860.86 1150.69 C1858.3 1160.18, 1855.58 1169.63, 1852.7 1179.03 C1849.83 1188.43, 1846.79 1197.79, 1843.61 1207.1 C1840.42 1216.4, 1837.08 1225.67, 1833.59 1234.87 C1830.1 1244.07, 1826.46 1253.22, 1822.67 1262.31 C1818.88 1271.4, 1814.93 1280.44, 1810.84 1289.41 C1806.75 1298.37, 1802.51 1307.28, 1798.12 1316.12 C1793.74 1324.95, 1789.21 1333.72, 1784.53 1342.42 C1779.86 1351.11, 1775.04 1359.74, 1770.08 1368.28 C1765.12 1376.83, 1760.02 1385.3, 1754.78 1393.68 C1749.54 1402.07, 1744.16 1410.38, 1738.64 1418.6 C1733.13 1426.82, 1727.48 1434.95, 1721.7 1443 C1715.92 1451.04, 1710 1459, 1703.95 1466.86 C1697.91 1474.71, 1691.73 1482.48, 1685.43 1490.15 C1679.13 1497.82, 1672.7 1505.39, 1666.15 1512.86 C1659.6 1520.32, 1652.92 1527.69, 1646.13 1534.95 C1639.33 1542.21, 1632.41 1549.37, 1625.38 1556.41 C1618.35 1563.46, 1611.2 1570.4, 1603.94 1577.22 C1596.68 1584.04, 1589.31 1590.75, 1581.83 1597.35 C1574.35 1603.94, 1566.75 1610.42, 1559.06 1616.78 C1551.36 1623.13, 1543.56 1629.37, 1535.66 1635.49 C1527.76 1641.6, 1519.75 1647.6, 1511.65 1653.46 C1503.55 1659.33, 1495.35 1665.07, 1487.06 1670.68 C1478.77 1676.29, 1470.39 1681.77, 1461.92 1687.12 C1453.45 1692.47, 1444.89 1697.69, 1436.25 1702.78 C1427.6 1707.86, 1418.87 1712.81, 1410.07 1717.62 C1401.26 1722.44, 1392.37 1727.11, 1383.41 1731.65 C1374.45 1736.19, 1365.41 1740.58, 1356.31 1744.84 C1347.2 1749.09, 1338.02 1753.21, 1328.78 1757.18 C1319.54 1761.15, 1310.23 1764.98, 1300.86 1768.66 C1291.5 1772.34, 1282.06 1775.87, 1272.58 1779.26 C1263.09 1782.65, 1253.55 1785.89, 1243.96 1788.98 C1234.37 1792.07, 1224.72 1795.01, 1215.03 1797.8 C1205.34 1800.59, 1195.61 1803.23, 1185.83 1805.72 C1176.05 1808.21, 1166.23 1810.54, 1156.38 1812.72 C1146.53 1814.91, 1136.63 1816.94, 1126.72 1818.81 C1116.8 1820.69, 1106.84 1822.41, 1096.86 1823.97 C1086.89 1825.54, 1076.88 1826.95, 1066.86 1828.2 C1056.83 1829.46, 1046.79 1830.55, 1036.73 1831.5 C1026.67 1832.44, 1016.59 1833.22, 1006.5 1833.85 C996.42 1834.48, 986.32 1834.95, 976.22 1835.27 C966.12 1835.58, 956 1835.74, 945.9 1835.74 C935.79 1835.74, 925.68 1835.58, 915.58 1835.27 C905.48 1834.95, 895.38 1834.48, 885.29 1833.85 C875.21 1833.22, 865.13 1832.44, 855.07 1831.5 C845.01 1830.55, 834.96 1829.46, 824.94 1828.2 C814.92 1826.95, 804.91 1825.54, 794.93 1823.97 C784.96 1822.41, 775 1820.69, 765.08 1818.81 C755.16 1816.94, 745.27 1814.91, 735.42 1812.72 C725.56 1810.54, 715.74 1808.21, 705.97 1805.72 C696.19 1803.23, 686.45 1800.59, 676.76 1797.8 C667.08 1795.01, 657.43 1792.07, 647.84 1788.98 C638.25 1785.89, 628.7 1782.65, 619.22 1779.26 C609.73 1775.87, 600.3 1772.34, 590.93 1768.66 C581.57 1764.98, 572.26 1761.15, 563.01 1757.18 C553.77 1753.21, 544.59 1749.09, 535.49 1744.84 C526.38 1740.58, 517.34 1736.19, 508.38 1731.65 C499.42 1727.11, 490.53 1722.44, 481.73 1717.62 C472.92 1712.81, 464.19 1707.86, 455.55 1702.78 C446.91 1697.69, 438.35 1692.47, 429.88 1687.12 C421.41 1681.77, 413.02 1676.29, 404.73 1670.68 C396.45 1665.07, 388.25 1659.33, 380.15 1653.46 C372.05 1647.6, 364.04 1641.6, 356.14 1635.49 C348.24 1629.37, 340.44 1623.13, 332.74 1616.78 C325.05 1610.42, 317.45 1603.94, 309.97 1597.35 C302.49 1590.75, 295.11 1584.04, 287.85 1577.22 C280.59 1570.4, 273.44 1563.46, 266.41 1556.41 C259.38 1549.37, 252.46 1542.21, 245.67 1534.95 C238.88 1527.69, 232.2 1520.32, 225.65 1512.86 C219.1 1505.39, 212.67 1497.82, 206.37 1490.15 C200.06 1482.48, 193.89 1474.71, 187.84 1466.86 C181.8 1459, 175.88 1451.04, 170.1 1443 C164.32 1434.95, 158.67 1426.82, 153.15 1418.6 C147.64 1410.38, 142.26 1402.07, 137.02 1393.68 C131.78 1385.3, 126.68 1376.83, 121.72 1368.28 C116.76 1359.74, 111.94 1351.11, 107.27 1342.42 C102.59 1333.72, 98.06 1324.95, 93.67 1316.12 C89.29 1307.28, 85.05 1298.37, 80.96 1289.41 C76.87 1280.44, 72.92 1271.4, 69.13 1262.31 C65.34 1253.22, 61.69 1244.07, 58.2 1234.87 C54.71 1225.67, 51.37 1216.4, 48.19 1207.1 C45 1197.79, 41.97 1188.43, 39.1 1179.03 C36.22 1169.63, 33.5 1160.18, 30.94 1150.69 C28.37 1141.2, 25.96 1131.67, 23.72 1122.11 C21.47 1112.55, 19.37 1102.95, 17.44 1093.33 C15.51 1083.7, 13.74 1074.04, 12.12 1064.36 C10.51 1054.68, 9.06 1044.97, 7.77 1035.24 C6.47 1025.52, 5.34 1015.77, 4.37 1006 C3.4 996.24, 2.59 986.46, 1.94 976.68 C1.3 966.89, 0.81 957.09, 0.49 947.29 C0.16 937.49, 0 927.67, 0 917.87 C0 908.06, 0.16 898.25, 0.49 888.45 C0.81 878.65, 1.3 868.85, 1.94 859.06 C2.59 849.27, 3.4 839.49, 4.37 829.73 C5.34 819.97, 6.47 810.22, 7.77 800.49 C9.06 790.77, 10.51 781.06, 12.12 771.38 C13.74 761.7, 15.51 752.04, 17.44 742.41 C19.37 732.78, 21.47 723.18, 23.72 713.62 C25.96 704.06, 28.37 694.53, 30.94 685.05 C33.5 675.56, 36.22 666.11, 39.1 656.71 C41.97 647.31, 45 637.95, 48.19 628.64 C51.37 619.33, 54.71 610.07, 58.2 600.87 C61.69 591.67, 65.34 582.51, 69.13 573.42 C72.92 564.33, 76.87 555.3, 80.96 546.33 C85.05 537.36, 89.29 528.46, 93.67 519.62 C98.06 510.79, 102.59 502.01, 107.27 493.32 C111.94 484.62, 116.76 476, 121.72 467.45 C126.68 458.91, 131.78 450.44, 137.02 442.05 C142.26 433.67, 147.64 425.36, 153.15 417.14 C158.67 408.92, 164.32 400.78, 170.1 392.74 C175.88 384.7, 181.8 376.74, 187.84 368.88 C193.89 361.02, 200.06 353.25, 206.37 345.59 C212.67 337.92, 219.1 330.35, 225.65 322.88 C232.2 315.41, 238.88 308.04, 245.67 300.78 C252.46 293.53, 259.38 286.37, 266.41 279.32 C273.44 272.28, 280.59 265.34, 287.85 258.52 C295.11 251.7, 302.49 244.98, 309.97 238.39 C317.45 231.8, 325.05 225.32, 332.74 218.96 C340.44 212.6, 348.24 206.36, 356.14 200.25 C364.04 194.14, 372.05 188.14, 380.15 182.28 C388.25 176.41, 396.45 170.67, 404.73 165.06 C413.02 159.45, 421.41 153.96, 429.88 148.61 C438.35 143.26, 446.91 138.04, 455.55 132.96 C464.19 127.88, 472.92 122.92, 481.73 118.11 C490.53 113.3, 499.42 108.62, 508.38 104.09 C517.34 99.55, 526.38 95.15, 535.49 90.9 C544.59 86.64, 553.77 82.53, 563.01 78.56 C572.26 74.59, 581.57 70.76, 590.93 67.08 C600.3 63.4, 609.73 59.86, 619.22 56.48 C628.7 53.09, 638.25 49.85, 647.84 46.76 C657.43 43.67, 667.08 40.73, 676.76 37.94 C686.45 35.15, 696.19 32.51, 705.97 30.02 C715.74 27.53, 725.56 25.2, 735.42 23.01 C745.27 20.83, 755.16 18.8, 765.08 16.93 C775 15.05, 784.96 13.33, 794.93 11.77 C804.91 10.2, 814.92 8.79, 824.94 7.54 C834.96 6.28, 845.01 5.18, 855.07 4.24 C865.13 3.3, 875.21 2.51, 885.29 1.89 C895.38 1.26, 905.48 0.79, 915.58 0.47 C925.68 0.16, 935.79 0, 945.9 0 C956 0, 966.12 0.16, 976.22 0.47 C986.32 0.79, 996.42 1.26, 1006.5 1.89 C1016.59 2.51, 1026.67 3.3, 1036.73 4.24 C1046.79 5.18, 1056.83 6.28, 1066.86 7.54 C1076.88 8.79, 1086.89 10.2, 1096.86 11.77 C1106.84 13.33, 1116.8 15.05, 1126.72 16.93 C1136.63 18.8, 1146.53 20.83, 1156.38 23.01 C1166.23 25.2, 1176.05 27.53, 1185.83 30.02 C1195.61 32.51, 1205.34 35.15, 1215.03 37.94 C1224.72 40.73, 1234.37 43.67, 1243.96 46.76 C1253.55 49.85, 1263.09 53.09, 1272.58 56.48 C1282.06 59.86, 1291.5 63.4, 1300.86 67.08 C1310.23 70.76, 1319.54 74.59, 1328.78 78.56 C1338.02 82.53, 1347.2 86.64, 1356.31 90.9 C1365.41 95.15, 1374.45 99.55, 1383.41 104.09 C1392.37 108.62, 1401.26 113.3, 1410.07 118.11 C1418.87 122.92, 1427.6 127.88, 1436.25 132.96 C1444.89 138.04, 1453.45 143.26, 1461.92 148.61 C1470.39 153.96, 1478.77 159.45, 1487.06 165.06 C1495.35 170.67, 1503.55 176.41, 1511.65 182.28 C1519.75 188.14, 1527.76 194.14, 1535.66 200.25 C1543.56 206.36, 1551.36 212.6, 1559.06 218.96 C1566.75 225.32, 1574.35 231.8, 1581.83 238.39 C1589.31 244.98, 1596.68 251.7, 1603.94 258.52 C1611.2 265.34, 1618.35 272.28, 1625.38 279.32 C1632.41 286.37, 1639.33 293.53, 1646.13 300.78 C1652.92 308.04, 1659.6 315.41, 1666.15 322.88 C1672.7 330.35, 1679.13 337.92, 1685.43 345.59 C1691.73 353.25, 1697.91 361.02, 1703.95 368.88 C1710 376.74, 1715.92 384.7, 1721.7 392.74 C1727.48 400.78, 1733.13 408.92, 1738.64 417.14 C1744.16 425.36, 1749.54 433.67, 1754.78 442.05 C1760.02 450.44, 1765.12 458.91, 1770.08 467.45 C1775.04 476, 1779.86 484.62, 1784.53 493.32 C1789.21 502.01, 1793.74 510.79, 1798.12 519.62 C1802.51 528.46, 1806.75 537.36, 1810.84 546.33 C1814.93 555.3, 1818.88 564.33, 1822.67 573.42 C1826.46 582.51, 1830.1 591.67, 1833.59 600.87 C1837.08 610.07, 1840.42 619.33, 1843.61 628.64 C1846.79 637.95, 1849.83 647.31, 1852.7 656.71 C1855.58 666.11, 1858.3 675.56, 1860.86 685.05 C1863.42 694.53, 1865.83 704.06, 1868.08 713.62 C1870.33 723.18, 1872.42 732.78, 1874.35 742.41 C1876.29 752.04, 1878.06 761.7, 1879.67 771.38 C1881.29 781.06, 1882.74 790.77, 1884.03 800.49 C1885.32 810.22, 1886.46 819.97, 1887.43 829.73 C1888.4 839.49, 1889.21 849.27, 1889.85 859.06 C1890.5 868.85, 1890.99 878.65, 1891.31 888.45 C1891.63 898.25, 1891.72 912.97, 1891.8 917.87 C1891.88 922.77, 1891.88 912.97, 1891.8 917.87" stroke="#000000" stroke-width="1" fill="none"></path></g><g transform="translate(442.46081542968744 1531.9662722632997) rotate(0 155.00000000000003 20.5)"><text x="0" y="33" font-family="Helvetica, Segoe UI Emoji" font-size="36px" fill="#000000" text-anchor="start" style="white-space: pre;" direction="ltr">Development Team</text></g><g transform="translate(532.076600574312 1663.5360499790736) rotate(0 100.5 113)"><text x="0" y="25.285714285714285" font-family="Helvetica, Segoe UI Emoji" font-size="28px" fill="#000000" text-anchor="start" style="white-space: pre;" direction="ltr"></text><text x="0" y="57.57142857142857" font-family="Helvetica, Segoe UI Emoji" font-size="28px" fill="#000000" text-anchor="start" style="white-space: pre;" direction="ltr">- PRs &amp; issues</text><text x="0" y="89.85714285714286" font-family="Helvetica, Segoe UI Emoji" font-size="28px" fill="#000000" text-anchor="start" style="white-space: pre;" direction="ltr">- code review</text><text x="0" y="122.14285714285714" font-family="Helvetica, Segoe UI Emoji" font-size="28px" fill="#000000" text-anchor="start" style="white-space: pre;" direction="ltr">- coffee breaks</text><text x="0" y="154.42857142857142" font-family="Helvetica, Segoe UI Emoji" font-size="28px" fill="#000000" text-anchor="start" style="white-space: pre;" direction="ltr">- documentation</text><text x="0" y="186.71428571428572" font-family="Helvetica, Segoe UI Emoji" font-size="28px" fill="#000000" text-anchor="start" style="white-space: pre;" direction="ltr">- backlogs</text><text x="0" y="219" font-family="Helvetica, Segoe UI Emoji" font-size="28px" fill="#000000" text-anchor="start" style="white-space: pre;" direction="ltr">- ...</text></g><g transform="translate(1122.5226847330732 1631.4066205705915) rotate(0 43 16)"><text x="0" y="25" font-family="Helvetica, Segoe UI Emoji" font-size="28px" fill="#000000" text-anchor="start" style="white-space: pre;" direction="ltr">data in</text></g><g transform="translate(1278.5634562174482 1626.7503705705915) rotate(0 83.5 113)"><text x="0" y="25.285714285714285" font-family="Helvetica, Segoe UI Emoji" font-size="28px" fill="#000000" text-anchor="start" style="white-space: pre;" direction="ltr">state (initial), </text><text x="0" y="57.57142857142857" font-family="Helvetica, Segoe UI Emoji" font-size="28px" fill="#000000" text-anchor="start" style="white-space: pre;" direction="ltr">instruction,</text><text x="0" y="89.85714285714286" font-family="Helvetica, Segoe UI Emoji" font-size="28px" fill="#000000" text-anchor="start" style="white-space: pre;" direction="ltr">state,</text><text x="0" y="122.14285714285714" font-family="Helvetica, Segoe UI Emoji" font-size="28px" fill="#000000" text-anchor="start" style="white-space: pre;" direction="ltr">instruction,</text><text x="0" y="154.42857142857142" font-family="Helvetica, Segoe UI Emoji" font-size="28px" fill="#000000" text-anchor="start" style="white-space: pre;" direction="ltr">...</text><text x="0" y="186.71428571428572" font-family="Helvetica, Segoe UI Emoji" font-size="28px" fill="#000000" text-anchor="start" style="white-space: pre;" direction="ltr">state (final).</text><text x="0" y="219" font-family="Helvetica, Segoe UI Emoji" font-size="28px" fill="#000000" text-anchor="start" style="white-space: pre;" direction="ltr"></text></g><g transform="translate(1501.5243937174482 1789.550785609654) rotate(0 51 16)"><text x="0" y="25" font-family="Helvetica, Segoe UI Emoji" font-size="28px" fill="#000000" text-anchor="start" style="white-space: pre;" direction="ltr">data out</text></g><g stroke-linecap="round"><g transform="translate(1189.666760730082 1764.1542239308742) rotate(90.80544616410182 17.49453707720079 -63.8039874233923)"><path d="M0 -18.6 C7.37 -18.75, 14.73 -18.9, 34.92 -19.31 M0 -18.6 C13.95 -18.88, 27.9 -19.17, 34.92 -19.31 M34.92 -19.31 C34.93 -41.2, 34.95 -63.1, 34.99 -109.01 M34.92 -19.31 C34.94 -44.75, 34.96 -70.19, 34.99 -109.01" stroke="#000000" stroke-width="1" fill="none"></path></g><g transform="translate(1189.666760730082 1764.1542239308742) rotate(90.80544616410182 17.49453707720079 -63.8039874233923)"><path d="M34.99 -109.01 L41.32 -95.41 L28.64 -95.42 L34.99 -109.01" stroke="none" stroke-width="0" fill="#000000" fill-rule="evenodd"></path><path d="M34.99 -109.01 C36.32 -106.14, 37.66 -103.27, 41.32 -95.41 M34.99 -109.01 C37.52 -103.57, 40.05 -98.14, 41.32 -95.41 M41.32 -95.41 C38.22 -95.41, 35.13 -95.41, 28.64 -95.42 M41.32 -95.41 C37.72 -95.41, 34.13 -95.41, 28.64 -95.42 M28.64 -95.42 C30.75 -99.94, 32.87 -104.47, 34.99 -109.01 M28.64 -95.42 C30.22 -98.79, 31.79 -102.17, 34.99 -109.01 M34.99 -109.01 C34.99 -109.01, 34.99 -109.01, 34.99 -109.01 M34.99 -109.01 C34.99 -109.01, 34.99 -109.01, 34.99 -109.01" stroke="#000000" stroke-width="1" fill="none"></path></g></g><g stroke-linecap="round"><g transform="translate(1042.5879580556975 1852.2315883423976) rotate(359.57803446179025 -83.29028129811974 -0.5780108146212228)"><path d="M0 0 C-51.64 -0.36, -103.29 -0.72, -166.58 -1.16 M0 0 C-42.28 -0.29, -84.56 -0.59, -166.58 -1.16" stroke="#000000" stroke-width="1" fill="none"></path></g><g transform="translate(1042.5879580556975 1852.2315883423976) rotate(359.57803446179025 -83.29028129811974 -0.5780108146212228)"><path d="M-166.58 -1.16 L-152.94 -7.4 L-153.03 5.28 L-166.58 -1.16" stroke="none" stroke-width="0" fill="#000000" fill-rule="evenodd"></path><path d="M-166.58 -1.16 C-162.35 -3.09, -158.12 -5.03, -152.94 -7.4 M-166.58 -1.16 C-163.12 -2.74, -159.66 -4.33, -152.94 -7.4 M-152.94 -7.4 C-152.97 -2.88, -153.01 1.64, -153.03 5.28 M-152.94 -7.4 C-152.96 -4.34, -152.98 -1.27, -153.03 5.28 M-153.03 5.28 C-157.2 3.3, -161.37 1.32, -166.58 -1.16 M-153.03 5.28 C-156.68 3.55, -160.33 1.81, -166.58 -1.16 M-166.58 -1.16 C-166.58 -1.16, -166.58 -1.16, -166.58 -1.16 M-166.58 -1.16 C-166.58 -1.16, -166.58 -1.16, -166.58 -1.16" stroke="#000000" stroke-width="1" fill="none"></path></g></g><g transform="translate(857.1459757486981 1981.660893031529) rotate(0 118.50000000000006 64.5)"><text x="0" y="25.25" font-family="Helvetica, Segoe UI Emoji" font-size="28px" fill="#000000" text-anchor="start" style="white-space: pre;" direction="ltr">- program behavior</text><text x="0" y="57.5" font-family="Helvetica, Segoe UI Emoji" font-size="28px" fill="#000000" text-anchor="start" style="white-space: pre;" direction="ltr">- error messages</text><text x="0" y="89.75" font-family="Helvetica, Segoe UI Emoji" font-size="28px" fill="#000000" text-anchor="start" style="white-space: pre;" direction="ltr">- logs</text><text x="0" y="122" font-family="Helvetica, Segoe UI Emoji" font-size="28px" fill="#000000" text-anchor="start" style="white-space: pre;" direction="ltr"></text></g><g transform="translate(577.9660528273811 1327.717080252511) rotate(0 103.5 64.5)"><text x="0" y="25.25" font-family="Helvetica, Segoe UI Emoji" font-size="28px" fill="#000000" text-anchor="start" style="white-space: pre;" direction="ltr">- comments</text><text x="0" y="57.5" font-family="Helvetica, Segoe UI Emoji" font-size="28px" fill="#000000" text-anchor="start" style="white-space: pre;" direction="ltr">- variable names</text><text x="0" y="89.75" font-family="Helvetica, Segoe UI Emoji" font-size="28px" fill="#000000" text-anchor="start" style="white-space: pre;" direction="ltr">- formatting</text><text x="0" y="122" font-family="Helvetica, Segoe UI Emoji" font-size="28px" fill="#000000" text-anchor="start" style="white-space: pre;" direction="ltr">- paradigms</text></g><g stroke-linecap="round"><g transform="translate(1080.4940647491567 1371.4854704786007) rotate(0 33.73704499270775 58.27495784831501)"><path d="M0 0 C19.93 34.43, 39.87 68.87, 67.47 116.55 M0 0 C13.55 23.41, 27.11 46.83, 67.47 116.55" stroke="#000000" stroke-width="1" fill="none"></path></g><g transform="translate(1080.4940647491567 1371.4854704786007) rotate(0 33.73704499270775 58.27495784831501)"><path d="M67.47 116.55 L55.18 107.96 L66.15 101.61 L67.47 116.55" stroke="none" stroke-width="0" fill="#000000" fill-rule="evenodd"></path><path d="M67.47 116.55 C63.84 114.01, 60.21 111.47, 55.18 107.96 M67.47 116.55 C65 114.82, 62.53 113.1, 55.18 107.96 M55.18 107.96 C58.71 105.91, 62.24 103.87, 66.15 101.61 M55.18 107.96 C57.55 106.59, 59.91 105.22, 66.15 101.61 M66.15 101.61 C66.48 105.35, 66.81 109.09, 67.47 116.55 M66.15 101.61 C66.65 107.2, 67.14 112.8, 67.47 116.55 M67.47 116.55 C67.47 116.55, 67.47 116.55, 67.47 116.55 M67.47 116.55 C67.47 116.55, 67.47 116.55, 67.47 116.55" stroke="#000000" stroke-width="1" fill="none"></path></g></g><g transform="translate(1144.590364002046 1347.2564740862163) rotate(0 120 48.5)"><text x="0" y="25.333333333333336" font-family="Helvetica, Segoe UI Emoji" font-size="28px" fill="#000000" text-anchor="start" style="white-space: pre;" direction="ltr">precise instructions</text><text x="0" y="57.66666666666667" font-family="Helvetica, Segoe UI Emoji" font-size="28px" fill="#000000" text-anchor="start" style="white-space: pre;" direction="ltr">for how to process</text><text x="0" y="90" font-family="Helvetica, Segoe UI Emoji" font-size="28px" fill="#000000" text-anchor="start" style="white-space: pre;" direction="ltr">program data</text></g><g transform="translate(1459.3681785946806 1051.835645403181) rotate(0 149.5 64.5)"><text x="0" y="25.25" font-family="Helvetica, Segoe UI Emoji" font-size="28px" fill="#000000" text-anchor="start" style="white-space: pre;" direction="ltr">- is intuitive</text><text x="0" y="57.5" font-family="Helvetica, Segoe UI Emoji" font-size="28px" fill="#000000" text-anchor="start" style="white-space: pre;" direction="ltr">- displays program state</text><text x="0" y="89.75" font-family="Helvetica, Segoe UI Emoji" font-size="28px" fill="#000000" text-anchor="start" style="white-space: pre;" direction="ltr">- takes in user data</text><text x="0" y="122" font-family="Helvetica, Segoe UI Emoji" font-size="28px" fill="#000000" text-anchor="start" style="white-space: pre;" direction="ltr">- real-time interactions</text></g><g transform="translate(790.132792154948 415.1175885881696) rotate(0 162 20.5)"><text x="0" y="33" font-family="Helvetica, Segoe UI Emoji" font-size="36px" fill="#000000" text-anchor="start" style="white-space: pre;" direction="ltr">Real-World Context:</text></g><g stroke-linecap="round" transform="translate(701.1824747721355 708.5975995744977) rotate(0 259.11236572265636 159.65234375)"><path d="M79.83 0 M79.83 0 C206.43 0, 333.04 0, 438.4 0 M79.83 0 C164.12 0, 248.42 0, 438.4 0 M438.4 0 C491.62 0, 518.22 26.61, 518.22 79.83 M438.4 0 C491.62 0, 518.22 26.61, 518.22 79.83 M518.22 79.83 C518.22 132.33, 518.22 184.84, 518.22 239.48 M518.22 79.83 C518.22 131.06, 518.22 182.29, 518.22 239.48 M518.22 239.48 C518.22 292.7, 491.62 319.3, 438.4 319.3 M518.22 239.48 C518.22 292.7, 491.62 319.3, 438.4 319.3 M438.4 319.3 C332.52 319.3, 226.65 319.3, 79.83 319.3 M438.4 319.3 C309.14 319.3, 179.89 319.3, 79.83 319.3 M79.83 319.3 C26.61 319.3, 0 292.7, 0 239.48 M79.83 319.3 C26.61 319.3, 0 292.7, 0 239.48 M0 239.48 C0 180.44, 0 121.4, 0 79.83 M0 239.48 C0 198.44, 0 157.4, 0 79.83 M0 79.83 C0 26.61, 26.61 0, 79.83 0 M0 79.83 C0 26.61, 26.61 0, 79.83 0" stroke="#000000" stroke-width="1" fill="none"></path></g><g transform="translate(782.8151652018229 477.4586530412946) rotate(0 188.49999999999994 64.5)"><text x="0" y="25.25" font-family="Helvetica, Segoe UI Emoji" font-size="28px" fill="#000000" text-anchor="start" style="white-space: pre;" direction="ltr">- who is building the software?</text><text x="0" y="57.5" font-family="Helvetica, Segoe UI Emoji" font-size="28px" fill="#000000" text-anchor="start" style="white-space: pre;" direction="ltr">- why are they building it?</text><text x="0" y="89.75" font-family="Helvetica, Segoe UI Emoji" font-size="28px" fill="#000000" text-anchor="start" style="white-space: pre;" direction="ltr">- who will use the software?</text><text x="0" y="122" font-family="Helvetica, Segoe UI Emoji" font-size="28px" fill="#000000" text-anchor="start" style="white-space: pre;" direction="ltr">- who will benefit from it?</text></g><g stroke-linecap="round"><g transform="translate(1113.718007170573 1200.711062656199) rotate(420.3268746343978 299.31057254518737 9.115237473781846)"><path d="M0 0 C200.4 6.1, 400.79 12.21, 598.62 18.23 M0 0 C183.26 5.58, 366.51 11.16, 598.62 18.23" stroke="#000000" stroke-width="1" fill="none"></path></g><g transform="translate(1113.718007170573 1200.711062656199) rotate(420.3268746343978 299.31057254518737 9.115237473781846)"><path d="M598.62 18.23 L584.84 24.15 L585.23 11.48 L598.62 18.23" stroke="none" stroke-width="0" fill="#000000" fill-rule="evenodd"></path><path d="M598.62 18.23 C594.01 20.21, 589.39 22.2, 584.84 24.15 M598.62 18.23 C594.4 20.04, 590.18 21.86, 584.84 24.15 M584.84 24.15 C584.96 20.05, 585.09 15.94, 585.23 11.48 M584.84 24.15 C584.92 21.44, 585.01 18.73, 585.23 11.48 M585.23 11.48 C589.52 13.64, 593.82 15.81, 598.62 18.23 M585.23 11.48 C590.04 13.91, 594.85 16.33, 598.62 18.23 M598.62 18.23 C598.62 18.23, 598.62 18.23, 598.62 18.23 M598.62 18.23 C598.62 18.23, 598.62 18.23, 598.62 18.23" stroke="#000000" stroke-width="1" fill="none"></path></g></g><g stroke-linecap="round"><g transform="translate(1676.7980128817253 1204.6267066324656) rotate(420.3268746343978 -300.7441980334469 -10.615168774464962)"><path d="M0 0 C-195.02 -6.88, -390.05 -13.77, -601.49 -21.23 M0 0 C-180.39 -6.37, -360.77 -12.73, -601.49 -21.23" stroke="#000000" stroke-width="1" fill="none"></path></g><g transform="translate(1676.7980128817253 1204.6267066324656) rotate(420.3268746343978 -300.7441980334469 -10.615168774464962)"><path d="M-601.49 -21.23 L-587.68 -27.09 L-588.13 -14.42 L-601.49 -21.23" stroke="none" stroke-width="0" fill="#000000" fill-rule="evenodd"></path><path d="M-601.49 -21.23 C-597.01 -23.13, -592.53 -25.03, -587.68 -27.09 M-601.49 -21.23 C-597.35 -22.99, -593.21 -24.74, -587.68 -27.09 M-587.68 -27.09 C-587.79 -24.06, -587.89 -21.04, -588.13 -14.42 M-587.68 -27.09 C-587.85 -22.17, -588.03 -17.26, -588.13 -14.42 M-588.13 -14.42 C-590.93 -15.85, -593.74 -17.28, -601.49 -21.23 M-588.13 -14.42 C-592.72 -16.76, -597.32 -19.1, -601.49 -21.23 M-601.49 -21.23 C-601.49 -21.23, -601.49 -21.23, -601.49 -21.23 M-601.49 -21.23 C-601.49 -21.23, -601.49 -21.23, -601.49 -21.23" stroke="#000000" stroke-width="1" fill="none"></path></g></g><g stroke-linecap="round"><g transform="translate(1558.8944041176283 1775.1624650711508) rotate(179.34474447194725 -61.444110785015255 -30.631346722391243)"><path d="M-12.98 -3.21 C-38.62 -3.32, -64.27 -3.44, -109.77 -3.65 M-12.98 -3.21 C-49.01 -3.37, -85.05 -3.53, -109.77 -3.65 M-109.77 -3.65 C-109.82 -21.05, -109.86 -38.46, -109.91 -58.06 M-109.77 -3.65 C-109.81 -17.91, -109.84 -32.17, -109.91 -58.06" stroke="#000000" stroke-width="1" fill="none"></path></g><g transform="translate(1558.8944041176283 1775.1624650711508) rotate(179.34474447194725 -61.444110785015255 -30.631346722391243)"><path d="M-109.91 -58.06 L-103.54 -44.48 L-116.22 -44.45 L-109.91 -58.06" stroke="none" stroke-width="0" fill="#000000" fill-rule="evenodd"></path><path d="M-109.91 -58.06 C-108.22 -54.46, -106.53 -50.86, -103.54 -44.48 M-109.91 -58.06 C-107.54 -53, -105.17 -47.95, -103.54 -44.48 M-103.54 -44.48 C-107.59 -44.47, -111.65 -44.46, -116.22 -44.45 M-103.54 -44.48 C-106.86 -44.47, -110.18 -44.46, -116.22 -44.45 M-116.22 -44.45 C-114.4 -48.36, -112.59 -52.27, -109.91 -58.06 M-116.22 -44.45 C-114.23 -48.74, -112.24 -53.03, -109.91 -58.06 M-109.91 -58.06 C-109.91 -58.06, -109.91 -58.06, -109.91 -58.06 M-109.91 -58.06 C-109.91 -58.06, -109.91 -58.06, -109.91 -58.06" stroke="#000000" stroke-width="1" fill="none"></path></g></g><g stroke-linecap="round" transform="translate(1069.7544555664065 1514.5283653622582) rotate(0 290.37760416666674 202.07356770833326)"><path d="M101.04 0 M101.04 0 C203.97 0, 306.9 0, 479.72 0 M101.04 0 C232.57 0, 364.1 0, 479.72 0 M479.72 0 C547.08 0, 580.76 33.68, 580.76 101.04 M479.72 0 C547.08 0, 580.76 33.68, 580.76 101.04 M580.76 101.04 C580.76 154.03, 580.76 207.03, 580.76 303.11 M580.76 101.04 C580.76 181.72, 580.76 262.41, 580.76 303.11 M580.76 303.11 C580.76 370.47, 547.08 404.15, 479.72 404.15 M580.76 303.11 C580.76 370.47, 547.08 404.15, 479.72 404.15 M479.72 404.15 C346.91 404.15, 214.09 404.15, 101.04 404.15 M479.72 404.15 C344.71 404.15, 209.7 404.15, 101.04 404.15 M101.04 404.15 C33.68 404.15, 0 370.47, 0 303.11 M101.04 404.15 C33.68 404.15, 0 370.47, 0 303.11 M0 303.11 C0 228.63, 0 154.16, 0 101.04 M0 303.11 C0 230.56, 0 158.01, 0 101.04 M0 101.04 C0 33.68, 33.68 0, 101.04 0 M0 101.04 C0 33.68, 33.68 0, 101.04 0" stroke="#000000" stroke-width="1" fill="none"></path></g><g transform="translate(1120.6086222330732 1850.2008100237165) rotate(0 218 16)"><text x="0" y="25" font-family="Helvetica, Segoe UI Emoji" font-size="28px" fill="#000000" text-anchor="start" style="white-space: pre;" direction="ltr">* state: data at one moment in time</text></g><g stroke-linecap="round"><g transform="translate(204.40574976442758 1221.2485405839968) rotate(303.3797250164552 322.9582923770784 -27.659241926184805)"><path d="M0 0 C255.29 -21.86, 510.58 -43.73, 645.92 -55.32 M0 0 C181.48 -15.54, 362.96 -31.09, 645.92 -55.32" stroke="#000000" stroke-width="1" fill="none"></path></g><g transform="translate(204.40574976442758 1221.2485405839968) rotate(303.3797250164552 322.9582923770784 -27.659241926184805)"><path d="M645.92 -55.32 L632.91 -47.84 L631.83 -60.47 L645.92 -55.32" stroke="none" stroke-width="0" fill="#000000" fill-rule="evenodd"></path><path d="M645.92 -55.32 C640.78 -52.36, 635.64 -49.41, 632.91 -47.84 M645.92 -55.32 C642.26 -53.22, 638.61 -51.12, 632.91 -47.84 M632.91 -47.84 C632.56 -51.95, 632.21 -56.05, 631.83 -60.47 M632.91 -47.84 C632.68 -50.53, 632.45 -53.22, 631.83 -60.47 M631.83 -60.47 C637.02 -58.57, 642.21 -56.67, 645.92 -55.32 M631.83 -60.47 C635.94 -58.97, 640.06 -57.46, 645.92 -55.32 M645.92 -55.32 C645.92 -55.32, 645.92 -55.32, 645.92 -55.32 M645.92 -55.32 C645.92 -55.32, 645.92 -55.32, 645.92 -55.32" stroke="#000000" stroke-width="1" fill="none"></path></g></g><g stroke-linecap="round"><g transform="translate(806.9044424414706 1178.6660571249286) rotate(303.3797250164552 -316.25107460129556 25.922300289444735)"><path d="M0 0 C-205.71 16.86, -411.41 33.72, -632.5 51.84 M0 0 C-137.99 11.31, -275.99 22.62, -632.5 51.84" stroke="#000000" stroke-width="1" fill="none"></path></g><g transform="translate(806.9044424414706 1178.6660571249286) rotate(303.3797250164552 -316.25107460129556 25.922300289444735)"><path d="M-632.5 51.84 L-619.47 44.42 L-618.44 57.05 L-632.5 51.84" stroke="none" stroke-width="0" fill="#000000" fill-rule="evenodd"></path><path d="M-632.5 51.84 C-628.26 49.43, -624.03 47.01, -619.47 44.42 M-632.5 51.84 C-629.66 50.22, -626.82 48.6, -619.47 44.42 M-619.47 44.42 C-619.14 48.4, -618.82 52.39, -618.44 57.05 M-619.47 44.42 C-619.13 48.63, -618.78 52.85, -618.44 57.05 M-618.44 57.05 C-623.82 55.06, -629.21 53.06, -632.5 51.84 M-618.44 57.05 C-623.45 55.2, -628.46 53.34, -632.5 51.84 M-632.5 51.84 C-632.5 51.84, -632.5 51.84, -632.5 51.84 M-632.5 51.84 C-632.5 51.84, -632.5 51.84, -632.5 51.84" stroke="#000000" stroke-width="1" fill="none"></path></g></g><g stroke-linecap="round" transform="translate(832.2452712286087 1115.4112505231583) rotate(0 124.60571289062528 123.54906354631703)"><path d="M61.77 0 M61.77 0 C101.91 0, 142.05 0, 187.44 0 M61.77 0 C106.47 0, 151.16 0, 187.44 0 M187.44 0 C228.62 0, 249.21 20.59, 249.21 61.77 M187.44 0 C228.62 0, 249.21 20.59, 249.21 61.77 M249.21 61.77 C249.21 90.07, 249.21 118.37, 249.21 185.32 M249.21 61.77 C249.21 94.45, 249.21 127.12, 249.21 185.32 M249.21 185.32 C249.21 226.51, 228.62 247.1, 187.44 247.1 M249.21 185.32 C249.21 226.51, 228.62 247.1, 187.44 247.1 M187.44 247.1 C144.3 247.1, 101.17 247.1, 61.77 247.1 M187.44 247.1 C160.7 247.1, 133.97 247.1, 61.77 247.1 M61.77 247.1 C20.59 247.1, 0 226.51, 0 185.32 M61.77 247.1 C20.59 247.1, 0 226.51, 0 185.32 M0 185.32 C0 156.15, 0 126.98, 0 61.77 M0 185.32 C0 140.43, 0 95.54, 0 61.77 M0 61.77 C0 20.59, 20.59 0, 61.77 0 M0 61.77 C0 20.59, 20.59 0, 61.77 0" stroke="#000000" stroke-width="1" fill="none"></path></g><g transform="translate(173.41599527994833 984.7455749511719) rotate(0 134.5 20.5)"><text x="0" y="33" font-family="Helvetica, Segoe UI Emoji" font-size="36px" fill="#000000" text-anchor="start" style="white-space: pre;" direction="ltr">Design Thinking:</text></g><g transform="translate(1493.5358683268232 989.9226379394531) rotate(0 118.5 20.5)"><text x="0" y="33" font-family="Helvetica, Segoe UI Emoji" font-size="36px" fill="#000000" text-anchor="start" style="white-space: pre;" direction="ltr">User Interface:</text></g><g stroke-linecap="round"><g transform="translate(742.8023030122946 1425.1480356883335) rotate(303.3797250164552 64.09674368809016 -0.48080302591984037)"><path d="M0 0 C42.51 -0.32, 85.02 -0.64, 128.19 -0.96 M0 0 C46.09 -0.35, 92.18 -0.69, 128.19 -0.96" stroke="#000000" stroke-width="1" fill="none"></path></g><g transform="translate(742.8023030122946 1425.1480356883335) rotate(303.3797250164552 64.09674368809016 -0.48080302591984037)"><path d="M128.19 -0.96 L114.65 5.48 L114.55 -7.2 L128.19 -0.96" stroke="none" stroke-width="0" fill="#000000" fill-rule="evenodd"></path><path d="M128.19 -0.96 C123.7 1.17, 119.21 3.31, 114.65 5.48 M128.19 -0.96 C123.32 1.35, 118.45 3.67, 114.65 5.48 M114.65 5.48 C114.62 1.41, 114.59 -2.66, 114.55 -7.2 M114.65 5.48 C114.61 0.63, 114.57 -4.22, 114.55 -7.2 M114.55 -7.2 C119.69 -4.85, 124.83 -2.5, 128.19 -0.96 M114.55 -7.2 C117.55 -5.83, 120.55 -4.46, 128.19 -0.96 M128.19 -0.96 C128.19 -0.96, 128.19 -0.96, 128.19 -0.96 M128.19 -0.96 C128.19 -0.96, 128.19 -0.96, 128.19 -0.96" stroke="#000000" stroke-width="1" fill="none"></path></g></g><g stroke-linecap="round"><g transform="translate(847.0553119308589 1435.5182394885244) rotate(303.3797250164552 -65.54607875543365 -0.005376238644032583)"><path d="M0 0 C-46.59 0, -93.18 -0.01, -131.09 -0.01 M0 0 C-48.4 0, -96.79 -0.01, -131.09 -0.01" stroke="#000000" stroke-width="1" fill="none"></path></g><g transform="translate(847.0553119308589 1435.5182394885244) rotate(303.3797250164552 -65.54607875543365 -0.005376238644032583)"><path d="M-131.09 -0.01 L-117.5 -6.35 L-117.5 6.33 L-131.09 -0.01" stroke="none" stroke-width="0" fill="#000000" fill-rule="evenodd"></path><path d="M-131.09 -0.01 C-126.26 -2.26, -121.43 -4.52, -117.5 -6.35 M-131.09 -0.01 C-126.07 -2.35, -121.05 -4.69, -117.5 -6.35 M-117.5 -6.35 C-117.5 -2.63, -117.5 1.09, -117.5 6.33 M-117.5 -6.35 C-117.5 -1.77, -117.5 2.81, -117.5 6.33 M-117.5 6.33 C-120.63 4.87, -123.76 3.41, -131.09 -0.01 M-117.5 6.33 C-122.46 4.01, -127.43 1.7, -131.09 -0.01 M-131.09 -0.01 C-131.09 -0.01, -131.09 -0.01, -131.09 -0.01 M-131.09 -0.01 C-131.09 -0.01, -131.09 -0.01, -131.09 -0.01" stroke="#000000" stroke-width="1" fill="none"></path></g></g><g transform="translate(1140.9559122721357 1251.6569519042969) rotate(0 98 41)"><text x="0" y="33" font-family="Helvetica, Segoe UI Emoji" font-size="36px" fill="#000000" text-anchor="start" style="white-space: pre;" direction="ltr">Computer</text><text x="0" y="74" font-family="Helvetica, Segoe UI Emoji" font-size="36px" fill="#000000" text-anchor="start" style="white-space: pre;" direction="ltr">Instructions:</text></g><g transform="translate(591.1241861979171 1234.7228088378906) rotate(0 87 41)"><text x="0" y="33" font-family="Helvetica, Segoe UI Emoji" font-size="36px" fill="#000000" text-anchor="start" style="white-space: pre;" direction="ltr">Developer </text><text x="0" y="74" font-family="Helvetica, Segoe UI Emoji" font-size="36px" fill="#000000" text-anchor="start" style="white-space: pre;" direction="ltr">Intentions:</text></g><g transform="translate(836.6033732096358 1924.0909118652344) rotate(0 143.49999999999994 20.5)"><text x="0" y="33" font-family="Helvetica, Segoe UI Emoji" font-size="36px" fill="#000000" text-anchor="start" style="white-space: pre;" direction="ltr">Computer Output:</text></g><g stroke-linecap="round" transform="translate(690.2858683268233 270.2476806640625) rotate(0 261.4931030273437 194.0668411254883)"><path d="M522.99 194.07 C522.99 198.13, 522.81 202.2, 522.47 206.25 C522.13 210.31, 521.61 214.36, 520.92 218.39 C520.24 222.42, 519.38 226.44, 518.35 230.43 C517.33 234.42, 516.13 238.4, 514.77 242.33 C513.41 246.26, 511.88 250.17, 510.19 254.04 C508.5 257.9, 506.64 261.73, 504.62 265.51 C502.61 269.28, 500.43 273.02, 498.1 276.7 C495.77 280.37, 493.28 284, 490.64 287.56 C488 291.12, 485.21 294.62, 482.28 298.05 C479.35 301.48, 476.26 304.85, 473.05 308.14 C469.83 311.42, 466.47 314.64, 462.98 317.77 C459.49 320.9, 455.86 323.95, 452.11 326.91 C448.37 329.88, 444.49 332.75, 440.5 335.54 C436.51 338.32, 432.39 341.01, 428.18 343.6 C423.96 346.19, 419.62 348.68, 415.19 351.07 C410.77 353.46, 406.23 355.75, 401.61 357.92 C396.99 360.1, 392.26 362.17, 387.47 364.13 C382.67 366.09, 377.78 367.93, 372.83 369.66 C367.88 371.39, 362.84 373.01, 357.76 374.51 C352.67 376, 347.5 377.38, 342.3 378.64 C337.09 379.89, 331.82 381.03, 326.52 382.04 C321.22 383.05, 315.87 383.94, 310.49 384.7 C305.12 385.46, 299.7 386.09, 294.27 386.6 C288.84 387.11, 283.37 387.5, 277.91 387.75 C272.45 388.01, 266.97 388.13, 261.49 388.13 C256.02 388.13, 250.54 388.01, 245.07 387.75 C239.61 387.5, 234.15 387.11, 228.72 386.6 C223.29 386.09, 217.87 385.46, 212.49 384.7 C207.12 383.94, 201.76 383.05, 196.46 382.04 C191.16 381.03, 185.89 379.89, 180.69 378.64 C175.48 377.38, 170.32 376, 165.23 374.51 C160.14 373.01, 155.11 371.39, 150.15 369.66 C145.2 367.93, 140.31 366.09, 135.52 364.13 C130.72 362.17, 126 360.1, 121.38 357.92 C116.76 355.75, 112.22 353.46, 107.79 351.07 C103.36 348.68, 99.03 346.19, 94.81 343.6 C90.59 341.01, 86.48 338.32, 82.49 335.54 C78.5 332.75, 74.62 329.88, 70.87 326.91 C67.13 323.95, 63.5 320.9, 60.01 317.77 C56.52 314.64, 53.16 311.42, 49.94 308.14 C46.72 304.85, 43.64 301.48, 40.71 298.05 C37.77 294.62, 34.98 291.12, 32.34 287.56 C29.71 284, 27.22 280.37, 24.89 276.7 C22.56 273.02, 20.38 269.28, 18.36 265.51 C16.35 261.73, 14.49 257.9, 12.8 254.04 C11.11 250.17, 9.58 246.26, 8.22 242.33 C6.85 238.4, 5.66 234.42, 4.63 230.43 C3.61 226.44, 2.75 222.42, 2.06 218.39 C1.38 214.36, 0.86 210.31, 0.52 206.25 C0.17 202.2, 0 198.13, 0 194.07 C0 190, 0.17 185.94, 0.52 181.88 C0.86 177.83, 1.38 173.77, 2.06 169.74 C2.75 165.71, 3.61 161.69, 4.63 157.7 C5.66 153.71, 6.85 149.74, 8.22 145.8 C9.58 141.87, 11.11 137.96, 12.8 134.1 C14.49 130.23, 16.35 126.4, 18.36 122.63 C20.38 118.85, 22.56 115.11, 24.89 111.44 C27.22 107.76, 29.71 104.13, 32.34 100.57 C34.98 97.01, 37.77 93.51, 40.71 90.08 C43.64 86.65, 46.72 83.28, 49.94 80 C53.16 76.71, 56.52 73.49, 60.01 70.36 C63.5 67.23, 67.13 64.18, 70.87 61.22 C74.62 58.26, 78.5 55.38, 82.49 52.6 C86.48 49.82, 90.59 47.12, 94.81 44.54 C99.03 41.95, 103.36 39.45, 107.79 37.06 C112.22 34.68, 116.76 32.39, 121.38 30.21 C126 28.03, 130.72 25.96, 135.52 24 C140.31 22.05, 145.2 20.2, 150.15 18.47 C155.11 16.74, 160.14 15.12, 165.23 13.63 C170.32 12.13, 175.48 10.75, 180.69 9.5 C185.89 8.24, 191.16 7.11, 196.46 6.1 C201.76 5.09, 207.12 4.2, 212.49 3.44 C217.87 2.68, 223.29 2.04, 228.72 1.53 C234.15 1.02, 239.61 0.64, 245.07 0.38 C250.54 0.13, 256.02 0, 261.49 0 C266.97 0, 272.45 0.13, 277.91 0.38 C283.37 0.64, 288.84 1.02, 294.27 1.53 C299.7 2.04, 305.12 2.68, 310.49 3.44 C315.87 4.2, 321.22 5.09, 326.52 6.1 C331.82 7.11, 337.09 8.24, 342.3 9.5 C347.5 10.75, 352.67 12.13, 357.76 13.63 C362.84 15.12, 367.88 16.74, 372.83 18.47 C377.78 20.2, 382.67 22.05, 387.47 24 C392.26 25.96, 396.99 28.03, 401.61 30.21 C406.23 32.39, 410.77 34.68, 415.19 37.06 C419.62 39.45, 423.96 41.95, 428.18 44.54 C432.39 47.12, 436.51 49.82, 440.5 52.6 C444.49 55.38, 448.37 58.26, 452.11 61.22 C455.86 64.18, 459.49 67.23, 462.98 70.36 C466.47 73.49, 469.83 76.71, 473.05 80 C476.26 83.28, 479.35 86.65, 482.28 90.08 C485.21 93.51, 488 97.01, 490.64 100.57 C493.28 104.13, 495.77 107.76, 498.1 111.44 C500.43 115.11, 502.61 118.85, 504.62 122.63 C506.64 126.4, 508.5 130.23, 510.19 134.1 C511.88 137.96, 513.41 141.87, 514.77 145.8 C516.13 149.74, 517.33 153.71, 518.35 157.7 C519.38 161.69, 520.24 165.71, 520.92 169.74 C521.61 173.77, 522.13 177.83, 522.47 181.88 C522.81 185.94, 522.9 192.04, 522.99 194.07 C523.07 196.1, 523.07 192.04, 522.99 194.07" stroke="#000000" stroke-width="1" fill="none"></path></g><g transform="translate(842.4385782877608 213.43075561523438) rotate(0 0 -0.286468505859375)" stroke="none" fill="#ffff"><path d="M 2.12,-0.66 Q 2.12,-0.66 2.15,-0.13 2.18,0.40 1.96,0.88 1.74,1.36 1.32,1.69 0.91,2.02 0.38,2.12 -0.13,2.21 -0.64,2.05 -1.14,1.90 -1.52,1.52 -1.90,1.14 -2.05,0.64 -2.21,0.13 -2.12,-0.38 -2.02,-0.91 -1.69,-1.32 -1.36,-1.74 -0.88,-1.96 -0.39,-2.18 0.13,-2.15 0.66,-2.11 1.11,-1.84 1.57,-1.56 1.84,-1.11 L 2.12,-0.66 Z"></path></g><g transform="translate(721.4229532877608 391.3995056152344) rotate(0 -22.74310302734375 -21.66668701171875)" stroke="none" fill="#ffff"><path d="M 0,2.36 Q 0,2.36 -1.29,2.39 -2.59,2.42 -4.56,2.50 -6.52,2.59 -7.63,2.61 -8.74,2.64 -10.18,2.29 -11.61,1.95 -12.40,0.97 -13.20,-0.01 -12.72,-2.26 -12.24,-4.50 -11.86,-5.55 -11.48,-6.60 -10.09,-8.53 -8.69,-10.45 -7.45,-12.17 -6.22,-13.90 -5.24,-15.92 -4.25,-17.95 -3.74,-19.36 -3.22,-20.77 -6.04,-19.58 -8.86,-18.39 -11.91,-16.84 -14.95,-15.29 -19.60,-12.54 -24.26,-9.79 -26.56,-8.33 -28.87,-6.86 -29.93,-6.00 -31.00,-5.13 -29.63,-4.24 -28.25,-3.34 -26.72,-2.53 -25.18,-1.72 -23.80,-1.06 -22.42,-0.40 -20.84,0.26 -19.26,0.93 -18.24,1.67 -17.22,2.41 -15.82,2.15 -14.43,1.90 -13.48,1.21 -12.53,0.52 -11.17,-0.33 -9.81,-1.19 -8.20,-2.26 -6.58,-3.32 -5.37,-4.34 -4.17,-5.35 -2.32,-6.54 -0.48,-7.72 1.32,-8.90 3.13,-10.08 4.53,-11.11 5.94,-12.14 7.63,-13.32 9.31,-14.49 10.66,-15.52 12.00,-16.55 13.31,-17.88 14.61,-19.20 15.85,-20.50 17.10,-21.80 18.12,-23.26 19.14,-24.71 19.87,-25.92 20.61,-27.12 21.42,-28.32 22.22,-29.53 22.81,-30.62 23.39,-31.72 23.89,-32.91 24.38,-34.10 24.71,-33.02 25.05,-31.95 20.58,-31.83 16.12,-31.71 7.30,-31.85 -1.50,-31.99 -12.94,-30.40 -24.39,-28.81 -34.66,-26.27 -44.93,-23.74 -52.36,-21.74 -59.78,-19.74 -63.26,-18.74 -66.73,-17.75 -68.00,-17.22 -69.27,-16.69 -69.63,-16.61 -70.00,-16.53 -70.22,-16.48 -70.43,-16.44 -70.66,-16.45 -70.88,-16.46 -71.09,-16.52 -71.31,-16.58 -71.50,-16.69 -71.69,-16.80 -71.85,-16.95 -72.01,-17.11 -72.13,-17.30 -72.25,-17.48 -72.32,-17.69 -72.39,-17.90 -72.41,-18.13 -72.43,-18.35 -72.39,-18.57 -72.35,-18.79 -72.27,-18.99 -72.18,-19.19 -72.05,-19.37 -71.91,-19.55 -71.74,-19.69 -71.57,-19.83 -71.37,-19.93 -71.17,-20.02 -68.95,-20.31 -66.73,-20.60 -62.11,-22.01 -57.48,-23.41 -47.62,-26.25 -37.77,-29.09 -29.71,-31.95 -21.65,-34.81 -12.58,-38.97 -3.51,-43.12 0.51,-45.05 4.55,-46.98 7.54,-48.42 10.53,-49.85 10.74,-49.91 10.95,-49.97 11.17,-49.96 11.39,-49.95 11.59,-49.88 11.80,-49.80 11.97,-49.66 12.14,-49.52 12.25,-49.33 12.37,-49.15 12.42,-48.93 12.47,-48.72 12.45,-48.50 12.43,-48.28 12.34,-48.08 12.25,-47.88 12.10,-47.72 11.95,-47.56 11.76,-47.45 11.57,-47.34 11.35,-47.30 11.14,-47.27 10.92,-47.30 10.70,-47.33 10.51,-47.43 10.31,-47.53 10.16,-47.69 10.00,-47.84 9.91,-48.04 9.81,-48.24 9.79,-48.46 9.76,-48.68 9.80,-48.89 9.85,-49.11 9.96,-49.30 10.07,-49.49 10.23,-49.63 10.40,-49.78 10.60,-49.86 10.80,-49.94 11.02,-49.96 11.24,-49.98 11.45,-49.92 11.67,-49.86 11.85,-49.74 12.03,-49.62 12.17,-49.45 12.30,-49.28 12.38,-49.07 12.45,-48.86 12.45,-48.64 12.46,-48.42 12.39,-48.22 12.32,-48.01 12.19,-47.83 12.06,-47.65 11.88,-47.53 11.70,-47.40 11.70,-47.40 11.70,-47.40 8.72,-45.95 5.74,-44.51 1.69,-42.54 -2.34,-40.58 -11.51,-36.35 -20.68,-32.12 -28.81,-29.19 -36.94,-26.26 -46.75,-23.37 -56.57,-20.48 -61.36,-18.95 -66.16,-17.42 -68.08,-16.98 -70.00,-16.53 -70.22,-16.48 -70.43,-16.44 -70.66,-16.45 -70.88,-16.46 -71.09,-16.52 -71.31,-16.58 -71.50,-16.69 -71.69,-16.80 -71.85,-16.95 -72.01,-17.11 -72.13,-17.30 -72.25,-17.48 -72.32,-17.69 -72.39,-17.90 -72.41,-18.13 -72.43,-18.35 -72.39,-18.57 -72.35,-18.79 -72.27,-18.99 -72.18,-19.19 -72.05,-19.37 -71.91,-19.55 -71.74,-19.69 -71.57,-19.83 -71.37,-19.93 -71.17,-20.02 -70.75,-19.98 -70.32,-19.94 -68.96,-20.30 -67.60,-20.65 -64.11,-21.73 -60.63,-22.80 -53.20,-24.91 -45.77,-27.02 -35.34,-29.73 -24.92,-32.45 -13.21,-34.24 -1.50,-36.04 7.32,-36.16 16.15,-36.27 20.45,-36.41 24.75,-36.54 26.28,-36.11 27.80,-35.67 28.32,-34.68 28.84,-33.69 28.63,-32.60 28.42,-31.51 27.76,-30.52 27.10,-29.52 26.33,-28.32 25.55,-27.13 24.69,-26.02 23.84,-24.92 22.98,-23.79 22.13,-22.65 20.97,-20.93 19.80,-19.21 18.56,-17.94 17.33,-16.67 15.87,-15.03 14.41,-13.39 13.06,-12.38 11.71,-11.36 10.12,-10.03 8.54,-8.70 7.16,-7.64 5.79,-6.57 4.14,-5.12 2.50,-3.68 1.12,-2.49 -0.25,-1.30 -1.70,0.25 -3.14,1.81 -4.82,2.91 -6.50,4.02 -7.87,4.82 -9.24,5.61 -10.71,6.41 -12.18,7.22 -13.65,7.43 -15.13,7.64 -17.23,7.30 -19.34,6.95 -20.28,6.09 -21.22,5.22 -22.76,4.27 -24.29,3.33 -25.65,2.62 -27.01,1.91 -28.85,1.03 -30.69,0.14 -32.44,-1.07 -34.20,-2.30 -34.64,-3.28 -35.07,-4.26 -34.07,-6.14 -33.08,-8.03 -31.86,-8.78 -30.65,-9.54 -28.35,-11.14 -26.04,-12.73 -21.38,-15.66 -16.72,-18.58 -13.30,-20.49 -9.88,-22.40 -6.24,-23.35 -2.59,-24.31 -1.39,-23.79 -0.19,-23.27 0.13,-21.30 0.45,-19.33 -0.16,-17.89 -0.79,-16.44 -1.72,-14.06 -2.65,-11.68 -3.66,-9.79 -4.68,-7.91 -5.54,-6.26 -6.41,-4.62 -7.57,-3.63 -8.74,-2.64 -7.63,-2.61 -6.52,-2.59 -4.56,-2.50 -2.59,-2.42 -1.29,-2.39 0,-2.36 0.28,-2.33 0.56,-2.30 0.83,-2.19 1.10,-2.09 1.33,-1.93 1.57,-1.77 1.76,-1.55 1.95,-1.34 2.08,-1.09 2.21,-0.84 2.28,-0.56 2.35,-0.28 2.35,0.00 2.35,0.28 2.28,0.56 2.21,0.84 2.08,1.09 1.95,1.34 1.76,1.56 1.57,1.77 1.33,1.93 1.10,2.09 0.83,2.19 0.56,2.30 0.28,2.33 -0.00,2.36 -0.00,2.36 L 0,2.36 Z"></path></g><g transform="translate(690.6330362955733 385.0713806152344) rotate(0 265.31249999999994 -46.08074951171875)" stroke="none" fill="#ffff"><path d="M 5.35,-8.12 Q 5.35,-8.12 7.43,-7.00 9.51,-5.87 13.10,-2.45 16.68,0.95 18.69,5.18 20.71,9.40 18.95,6.77 17.18,4.14 18.25,5.05 19.31,5.96 20.12,7.09 20.93,8.23 21.45,9.53 21.97,10.83 22.16,12.21 22.35,13.60 22.20,14.99 22.06,16.38 21.58,17.69 21.11,19.01 20.33,20.17 19.56,21.34 18.52,22.28 17.49,23.22 16.27,23.89 15.04,24.56 13.69,24.92 12.33,25.28 10.94,25.30 9.54,25.32 8.18,25.01 6.81,24.70 5.57,24.07 4.32,23.44 4.67,14.08 5.03,4.73 4.40,-0.50 3.77,-5.73 6.23,-9.84 8.69,-13.95 11.41,-18.14 14.13,-22.33 17.13,-25.64 20.14,-28.96 24.09,-33.48 28.03,-38.00 31.89,-40.49 35.75,-42.98 41.19,-46.68 46.63,-50.38 50.75,-53.50 54.87,-56.61 58.48,-59.04 62.08,-61.47 65.73,-63.89 69.39,-66.31 73.12,-68.58 76.86,-70.85 80.71,-72.71 84.56,-74.56 88.78,-76.38 93.00,-78.19 98.77,-81.04 104.54,-83.89 108.23,-88.39 111.92,-92.89 117.03,-95.94 122.13,-98.98 125.86,-101.41 129.58,-103.83 133.19,-106.22 136.80,-108.62 141.29,-110.32 145.78,-112.02 150.01,-113.08 154.25,-114.14 158.69,-115.25 163.14,-116.37 170.64,-117.54 178.14,-118.71 182.77,-119.23 187.40,-119.76 192.17,-119.99 196.95,-120.22 202.77,-120.37 208.58,-120.53 213.78,-120.54 218.99,-120.56 224.00,-120.61 229.01,-120.66 233.46,-120.74 237.91,-120.81 243.37,-120.86 248.82,-120.92 253.62,-120.87 258.42,-120.82 263.20,-120.62 267.99,-120.43 273.13,-120.48 278.27,-120.53 284.97,-120.46 291.67,-120.39 296.55,-120.40 301.43,-120.41 306.08,-119.73 310.73,-119.06 315.16,-118.46 319.60,-117.87 324.00,-116.84 328.41,-115.81 333.88,-114.94 339.35,-114.08 344.69,-113.08 350.03,-112.09 354.68,-111.20 359.33,-110.32 365.57,-108.47 371.81,-106.63 377.50,-104.80 383.18,-102.98 387.40,-101.58 391.62,-100.19 396.41,-97.60 401.21,-95.01 404.69,-92.45 408.17,-89.88 412.51,-87.07 416.86,-84.26 421.06,-81.11 425.27,-77.96 428.73,-75.40 432.20,-72.84 437.20,-70.94 442.20,-69.04 446.40,-67.20 450.59,-65.36 454.60,-63.51 458.61,-61.67 463.00,-59.57 467.38,-57.48 471.79,-54.92 476.20,-52.37 481.09,-48.52 485.99,-44.68 489.38,-41.80 492.77,-38.92 496.72,-33.95 500.66,-28.98 503.22,-25.01 505.78,-21.04 508.01,-17.31 510.25,-13.59 514.74,-10.95 519.23,-8.32 514.96,-11.25 510.70,-14.19 516.30,-11.04 521.90,-7.89 517.64,-10.53 513.38,-13.18 519.36,-9.46 525.34,-5.74 526.69,-1.62 528.04,2.48 524.74,-2.41 521.44,-7.31 516.41,-6.68 511.38,-6.05 513.83,-10.65 516.27,-15.25 517.39,-16.62 518.50,-17.99 520.36,-19.67 522.22,-21.35 524.52,-22.35 526.82,-23.35 529.32,-23.57 531.82,-23.78 534.25,-23.18 536.69,-22.59 538.81,-21.25 540.92,-19.91 542.50,-17.96 544.08,-16.01 544.95,-13.66 545.83,-11.31 545.91,-8.80 545.98,-6.30 545.26,-3.90 544.53,-1.50 543.08,0.54 541.62,2.58 539.59,4.05 537.56,5.52 535.17,6.26 532.77,7.01 530.27,6.95 527.76,6.89 525.40,6.04 523.04,5.18 521.08,3.62 519.12,2.06 517.77,-0.04 516.41,-2.15 515.79,-4.58 515.18,-7.01 515.37,-9.51 515.57,-12.01 516.55,-14.32 517.53,-16.63 519.20,-18.50 520.86,-20.37 523.04,-21.61 525.22,-22.86 527.68,-23.34 530.14,-23.82 532.63,-23.49 535.11,-23.16 537.36,-22.06 539.61,-20.95 541.39,-19.18 543.17,-17.42 544.30,-15.17 545.42,-12.93 545.77,-10.45 546.11,-7.97 545.65,-5.50 545.19,-3.04 543.96,-0.85 542.74,1.33 542.74,1.32 542.74,1.32 540.10,4.73 537.46,8.15 533.48,12.04 529.50,15.94 525.65,17.94 521.79,19.93 517.56,21.21 513.32,22.48 508.69,20.54 504.05,18.61 500.52,12.53 496.98,6.45 501.16,11.56 505.34,16.68 500.08,13.43 494.83,10.19 498.37,12.64 501.92,15.10 496.16,11.49 490.39,7.89 487.25,3.44 484.11,-1.00 480.09,-5.65 476.07,-10.30 473.25,-13.74 470.42,-17.17 465.62,-21.13 460.82,-25.09 457.22,-27.89 453.63,-30.69 449.52,-32.42 445.42,-34.15 441.54,-35.94 437.65,-37.72 432.79,-40.02 427.93,-42.32 424.18,-44.38 420.44,-46.44 414.74,-49.61 409.04,-52.78 404.76,-55.85 400.48,-58.92 397.00,-61.75 393.52,-64.58 389.07,-68.16 384.62,-71.73 379.75,-73.49 374.88,-75.24 369.27,-76.86 363.67,-78.48 356.97,-80.29 350.28,-82.10 344.78,-83.29 339.28,-84.48 334.79,-85.11 330.29,-85.74 323.32,-86.97 316.34,-88.19 311.41,-89.07 306.49,-89.94 300.94,-90.47 295.39,-91.01 289.92,-90.90 284.44,-90.80 279.36,-90.86 274.27,-90.92 269.62,-91.00 264.96,-91.08 260.03,-91.40 255.10,-91.72 250.26,-91.67 245.43,-91.62 240.60,-91.68 235.76,-91.75 231.08,-91.82 226.40,-91.90 220.26,-91.90 214.13,-91.90 209.20,-91.80 204.28,-91.70 198.15,-91.17 192.02,-90.65 187.66,-89.74 183.29,-88.84 175.92,-87.43 168.55,-86.02 163.78,-84.67 159.00,-83.33 154.52,-81.87 150.04,-80.42 146.30,-78.28 142.56,-76.15 137.72,-73.23 132.89,-70.31 129.53,-66.61 126.18,-62.91 120.84,-59.25 115.51,-55.59 111.67,-53.60 107.83,-51.62 103.55,-49.77 99.26,-47.92 94.40,-46.17 89.53,-44.43 84.08,-40.55 78.63,-36.66 74.62,-34.38 70.61,-32.10 65.93,-28.80 61.26,-25.50 57.23,-22.61 53.19,-19.71 48.96,-17.19 44.72,-14.68 41.54,-11.42 38.36,-8.16 35.13,-4.84 31.91,-1.51 29.14,2.37 26.36,6.25 24.84,10.43 23.31,14.60 20.29,18.57 17.26,22.54 17.22,13.34 17.18,4.13 18.24,5.04 19.31,5.95 20.12,7.09 20.93,8.23 21.45,9.53 21.97,10.83 22.16,12.21 22.35,13.60 22.20,14.99 22.06,16.38 21.58,17.69 21.11,19.01 20.33,20.17 19.56,21.34 18.53,22.28 17.49,23.22 16.27,23.89 15.04,24.56 13.69,24.92 12.34,25.28 10.94,25.30 9.54,25.32 8.18,25.01 6.81,24.70 5.57,24.07 4.32,23.44 3.38,21.18 2.43,18.92 0.40,14.99 -1.63,11.06 -3.49,9.59 -5.35,8.12 -6.24,7.37 -7.14,6.61 -7.82,5.66 -8.51,4.71 -8.95,3.62 -9.39,2.53 -9.56,1.37 -9.72,0.21 -9.61,-0.95 -9.49,-2.12 -9.10,-3.22 -8.71,-4.33 -8.06,-5.31 -7.42,-6.29 -6.56,-7.08 -5.70,-7.88 -4.67,-8.45 -3.64,-9.02 -2.51,-9.32 -1.38,-9.63 -0.21,-9.65 0.96,-9.68 2.10,-9.42 3.25,-9.17 4.30,-8.65 5.35,-8.12 5.35,-8.12 L 5.35,-8.12 Z"></path></g><g transform="translate(1213.4543253580732 377.7796936035156) rotate(0 -6.7708740234375 6.48870849609375)" stroke="none" fill="#ffff"><path d="M 8.39,4.66 Q 8.39,4.66 7.73,6.20 7.07,7.75 4.68,11.42 2.29,15.08 -1.76,18.68 -5.81,22.27 -6.57,23.02 -7.32,23.76 -8.69,23.98 -10.06,24.21 -11.45,24.10 -12.83,23.99 -14.15,23.55 -15.47,23.11 -16.65,22.37 -17.82,21.62 -18.79,20.62 -19.75,19.62 -20.45,18.42 -21.15,17.21 -21.53,15.88 -21.92,14.54 -21.98,13.15 -22.04,11.77 -21.76,10.40 -21.48,9.04 -20.89,7.78 -20.29,6.53 -19.42,5.45 -18.54,4.37 -17.43,3.53 -16.32,2.70 -15.04,2.15 -13.76,1.60 -13.67,12.77 -13.58,23.93 -15.42,23.62 -17.26,23.31 -18.91,22.43 -20.55,21.55 -21.83,20.19 -23.11,18.83 -23.88,17.14 -24.66,15.44 -24.85,13.58 -25.05,11.73 -24.64,9.91 -24.23,8.09 -23.26,6.49 -22.29,4.90 -20.87,3.70 -19.44,2.49 -17.71,1.81 -15.97,1.13 -14.11,1.03 -12.24,0.94 -10.45,1.45 -8.65,1.95 -7.11,3.01 -5.57,4.06 -4.45,5.55 -3.33,7.04 -2.74,8.81 -2.15,10.58 -2.16,12.45 -2.17,14.31 -2.77,16.08 -3.37,17.84 -4.51,19.32 -5.64,20.80 -7.19,21.84 -8.74,22.88 -10.54,23.38 -12.34,23.87 -14.20,23.76 -16.06,23.65 -17.79,22.95 -19.52,22.25 -20.94,21.04 -22.36,19.83 -23.31,18.22 -24.27,16.62 -24.66,14.80 -25.05,12.97 -24.84,11.12 -24.63,9.27 -23.84,7.58 -23.05,5.89 -21.76,4.54 -20.48,3.19 -18.82,2.32 -17.17,1.46 -15.33,1.16 -13.49,0.87 -13.49,0.87 -13.49,0.87 -10.40,12.31 -7.32,23.76 -8.69,23.98 -10.06,24.21 -11.45,24.10 -12.83,23.99 -14.15,23.55 -15.47,23.11 -16.65,22.37 -17.82,21.63 -18.79,20.62 -19.75,19.62 -20.45,18.42 -21.15,17.22 -21.53,15.88 -21.92,14.55 -21.98,13.16 -22.04,11.77 -21.76,10.40 -21.48,9.04 -20.89,7.78 -20.30,6.53 -19.42,5.45 -18.54,4.37 -17.43,3.53 -16.32,2.70 -15.04,2.15 -13.76,1.60 -11.50,0.89 -9.23,0.17 -12.48,3.12 -15.72,6.06 -13.02,2.07 -10.32,-1.91 -9.35,-3.28 -8.39,-4.66 -7.71,-5.59 -7.03,-6.53 -6.14,-7.28 -5.26,-8.02 -4.22,-8.54 -3.18,-9.05 -2.05,-9.30 -0.92,-9.55 0.22,-9.52 1.38,-9.50 2.50,-9.19 3.61,-8.89 4.62,-8.33 5.64,-7.76 6.48,-6.98 7.33,-6.19 7.97,-5.22 8.60,-4.25 8.98,-3.16 9.37,-2.07 9.48,-0.92 9.59,0.22 9.43,1.37 9.26,2.51 8.82,3.59 8.39,4.66 8.39,4.66 L 8.39,4.66 Z"></path></g><g transform="translate(1236.3534952799482 364.7154846191406) rotate(0 0.2864990234375 0)" stroke="none" fill="#ffff"><path d="M 8.48,-2.64 Q 8.48,-2.64 8.60,-0.52 8.73,1.60 7.86,3.53 6.99,5.47 5.31,6.78 3.64,8.10 1.55,8.48 -0.53,8.86 -2.56,8.23 -4.59,7.60 -6.09,6.09 -7.60,4.59 -8.23,2.56 -8.86,0.53 -8.48,-1.55 -8.09,-3.64 -6.78,-5.31 -5.47,-6.99 -3.53,-7.86 -1.59,-8.73 0.52,-8.60 2.64,-8.47 4.46,-7.37 6.28,-6.27 7.38,-4.46 L 8.48,-2.64 Z"></path></g><g transform="translate(2130.589579264323 452.2309265136719) rotate(0 0.00005000000010113581 0.00004999999998744897)" stroke="none" fill="#ffff"><path d="M 6.28,-6.28 Q 6.28,-6.28 7.11,-5.11 7.95,-3.94 8.37,-2.57 8.80,-1.19 8.76,0.23 8.72,1.67 8.22,3.02 7.73,4.37 6.83,5.49 5.93,6.61 4.72,7.38 3.50,8.15 2.11,8.50 0.72,8.85 -0.71,8.73 -2.14,8.61 -3.46,8.05 -4.78,7.48 -5.85,6.52 -6.92,5.56 -7.63,4.31 -8.33,3.06 -8.60,1.65 -8.87,0.23 -8.68,-1.18 -8.49,-2.60 -7.85,-3.89 -7.21,-5.18 -6.19,-6.19 -5.18,-7.21 -3.89,-7.85 -2.60,-8.49 -1.18,-8.68 0.24,-8.87 1.65,-8.60 3.06,-8.33 4.31,-7.62 5.56,-6.92 6.52,-5.85 7.48,-4.78 8.05,-3.46 8.62,-2.14 8.73,-0.70 8.85,0.72 8.50,2.11 8.15,3.51 7.38,4.72 6.61,5.93 5.49,6.83 4.36,7.73 3.02,8.22 1.67,8.72 0.23,8.76 -1.20,8.80 -2.57,8.37 -3.94,7.95 -5.11,7.11 -6.28,6.27 -6.28,6.28 -6.28,6.28 -6.94,5.43 -7.60,4.59 -8.04,3.61 -8.48,2.64 -8.67,1.58 -8.86,0.53 -8.80,-0.53 -8.73,-1.60 -8.41,-2.62 -8.09,-3.64 -7.54,-4.56 -6.99,-5.47 -6.23,-6.23 -5.47,-6.99 -4.56,-7.54 -3.64,-8.10 -2.62,-8.41 -1.60,-8.73 -0.53,-8.80 0.53,-8.86 1.59,-8.67 2.64,-8.48 3.61,-8.04 4.59,-7.60 5.43,-6.94 6.28,-6.28 6.28,-6.28 L 6.28,-6.28 Z"></path></g><g transform="translate(746.0669962565108 10.572906494140625) rotate(0 0 -0.2864532470703125)" stroke="none" fill="#ffff"><path d="M 8.48,-2.64 Q 8.48,-2.64 8.60,-0.52 8.73,1.60 7.86,3.53 6.99,5.47 5.31,6.78 3.64,8.10 1.55,8.48 -0.53,8.86 -2.56,8.23 -4.59,7.60 -6.09,6.09 -7.60,4.59 -8.23,2.56 -8.86,0.53 -8.48,-1.55 -8.09,-3.64 -6.78,-5.31 -5.47,-6.99 -3.53,-7.86 -1.59,-8.73 0.52,-8.60 2.64,-8.47 4.46,-7.37 6.28,-6.27 7.38,-4.46 L 8.48,-2.64 Z"></path></g><g stroke-linecap="round"><g transform="translate(563.1461817631867 1672.0972495743117) rotate(360.0138557234481 74.67932062268937 0.14296396657380228)"><path d="M0 0 C47.09 0.09, 94.18 0.18, 149.36 0.29 M0 0 C47.95 0.09, 95.9 0.18, 149.36 0.29" stroke="#000000" stroke-width="1" fill="none"></path></g><g transform="translate(563.1461817631867 1672.0972495743117) rotate(360.0138557234481 74.67932062268937 0.14296396657380228)"><path d="M149.36 0.29 L135.75 6.6 L135.78 -6.08 L149.36 0.29" stroke="none" stroke-width="0" fill="#000000" fill-rule="evenodd"></path><path d="M149.36 0.29 C145.07 2.28, 140.78 4.27, 135.75 6.6 M149.36 0.29 C144.99 2.31, 140.62 4.34, 135.75 6.6 M135.75 6.6 C135.76 1.86, 135.77 -2.88, 135.78 -6.08 M135.75 6.6 C135.76 2.64, 135.77 -1.31, 135.78 -6.08 M135.78 -6.08 C140.61 -3.82, 145.44 -1.55, 149.36 0.29 M135.78 -6.08 C138.79 -4.67, 141.8 -3.26, 149.36 0.29 M149.36 0.29 C149.36 0.29, 149.36 0.29, 149.36 0.29 M149.36 0.29 C149.36 0.29, 149.36 0.29, 149.36 0.29" stroke="#000000" stroke-width="1" fill="none"></path></g></g><g stroke-linecap="round"><g transform="translate(693.0479786702616 1652.428056433704) rotate(360.0138557234481 -75.26070012189854 -0.8627681673813186)"><path d="M0 0 C-47.32 -0.54, -94.64 -1.08, -150.52 -1.73 M0 0 C-37.16 -0.43, -74.32 -0.85, -150.52 -1.73" stroke="#000000" stroke-width="1" fill="none"></path></g><g transform="translate(693.0479786702616 1652.428056433704) rotate(360.0138557234481 -75.26070012189854 -0.8627681673813186)"><path d="M-150.52 -1.73 L-136.86 -7.91 L-137 4.77 L-150.52 -1.73" stroke="none" stroke-width="0" fill="#000000" fill-rule="evenodd"></path><path d="M-150.52 -1.73 C-146.23 -3.67, -141.93 -5.61, -136.86 -7.91 M-150.52 -1.73 C-147.15 -3.25, -143.77 -4.78, -136.86 -7.91 M-136.86 -7.91 C-136.9 -3.78, -136.95 0.35, -137 4.77 M-136.86 -7.91 C-136.9 -3.92, -136.95 0.06, -137 4.77 M-137 4.77 C-140.13 3.27, -143.26 1.76, -150.52 -1.73 M-137 4.77 C-141.18 2.76, -145.35 0.76, -150.52 -1.73 M-150.52 -1.73 C-150.52 -1.73, -150.52 -1.73, -150.52 -1.73 M-150.52 -1.73 C-150.52 -1.73, -150.52 -1.73, -150.52 -1.73" stroke="#000000" stroke-width="1" fill="none"></path></g></g><g transform="translate(1032.6398722330732 738.5552673339844) rotate(0 6.5 20.5)"><text x="0" y="33" font-family="Helvetica, Segoe UI Emoji" font-size="36px" fill="#ffff" text-anchor="start" style="white-space: pre;" direction="ltr">(</text></g><g transform="translate(971.684916178386 847.4233093261719) rotate(0 114.5 64.5)"><text x="0" y="25.25" font-family="Helvetica, Segoe UI Emoji" font-size="28px" fill="#000000" text-anchor="start" style="white-space: pre;" direction="ltr">- wants and needs</text><text x="0" y="57.5" font-family="Helvetica, Segoe UI Emoji" font-size="28px" fill="#000000" text-anchor="start" style="white-space: pre;" direction="ltr">- frustrations</text><text x="0" y="89.75" font-family="Helvetica, Segoe UI Emoji" font-size="28px" fill="#000000" text-anchor="start" style="white-space: pre;" direction="ltr">- and dreams</text><text x="0" y="122" font-family="Helvetica, Segoe UI Emoji" font-size="28px" fill="#000000" text-anchor="start" style="white-space: pre;" direction="ltr"></text></g></svg>